<svg xmlns="http://www.w3.org/2000/svg" width="1024" height="1024" viewBox="0 0 1024 1024"><rect width="100%" height="100%" fill="#FFA500"/><path fill="#0000FF" d="m253.415 364.745-3.32 6.28q-.59 1.04-1.26 1.51t-1.66.47q-1.04 0-2.25-.77-1.22-.76-2.9-1.7t-3.93-1.71q-2.26-.77-5.33-.77-2.77 0-4.85.67-2.08.67-3.49 1.86-1.41 1.18-2.1 2.84-.69 1.66-.69 3.64 0 2.52 1.41 4.21 1.41 1.68 3.74 2.87 2.32 1.19 5.29 2.13t6.09 2q3.12 1.07 6.09 2.48 2.97 1.41 5.3 3.56 2.32 2.15 3.73 5.27 1.41 3.12 1.41 7.58 0 4.85-1.65 9.08-1.66 4.23-4.86 7.38-3.19 3.14-7.79 4.95-4.61 1.8-10.55 1.8-3.41 0-6.73-.67-3.31-.66-6.36-1.9-3.04-1.24-5.72-2.97-2.67-1.73-4.75-3.86l3.91-6.39q.5-.69 1.29-1.16t1.68-.47q1.24 0 2.68 1.01 1.43 1.02 3.41 2.25 1.98 1.24 4.63 2.26 2.65 1.01 6.36 1.01 5.69 0 8.81-2.7 3.12-2.69 3.12-7.74 0-2.82-1.41-4.61-1.41-1.78-3.74-2.99-2.32-1.21-5.29-2.06-2.97-.84-6.04-1.83-3.07-.99-6.04-2.37-2.97-1.39-5.3-3.62-2.33-2.22-3.74-5.56-1.41-3.35-1.41-8.25 0-3.91 1.56-7.62t4.53-6.58q2.97-2.87 7.33-4.61 4.35-1.73 10-1.73 6.33 0 11.68 1.98 5.34 1.98 9.11 5.55Zm33.41 13.26q5.64 0 10.27 1.83t7.92 5.2q3.29 3.37 5.07 8.22 1.79 4.85 1.79 10.84 0 6.04-1.79 10.89-1.78 4.85-5.07 8.26-3.29 3.42-7.92 5.25t-10.27 1.83q-5.69 0-10.35-1.83-4.65-1.83-7.94-5.25-3.29-3.41-5.1-8.26-1.81-4.85-1.81-10.89 0-5.99 1.81-10.84t5.1-8.22q3.29-3.37 7.94-5.2 4.66-1.83 10.35-1.83Zm0 42.92q6.33 0 9.38-4.26 3.04-4.26 3.04-12.47 0-8.22-3.04-12.53-3.05-4.3-9.38-4.3-6.44 0-9.53 4.33-3.09 4.33-3.09 12.5 0 8.16 3.09 12.45 3.09 4.28 9.53 4.28Zm50.19 8.66h-12.22v-41.58l-4.41-.69q-1.44-.3-2.3-1.02-.87-.72-.87-2.05v-5h7.58v-3.76q0-4.36 1.31-7.82 1.31-3.47 3.76-5.89 2.45-2.43 5.96-3.72 3.52-1.28 7.92-1.28 3.52 0 6.54.94l-.25 6.13q-.05.7-.4 1.12-.34.42-.91.64-.57.22-1.31.3-.75.07-1.59.07-2.17 0-3.88.47t-2.9 1.64q-1.19 1.16-1.81 3.07-.61 1.9-.61 4.72v3.37h13.21v8.71h-12.82v41.63Zm36.63.79q-6.63 0-10.17-3.74-3.54-3.73-3.54-10.32v-28.36h-5.2q-.99 0-1.68-.64-.69-.65-.69-1.93v-4.85l8.16-1.34 2.58-13.86q.25-.99.94-1.54.69-.54 1.78-.54h6.34v15.99h13.56v8.71h-13.56v27.52q0 2.38 1.16 3.71 1.16 1.34 3.19 1.34 1.14 0 1.91-.27t1.34-.57q.56-.3 1.01-.57.45-.27.89-.27.55 0 .89.27.35.27.74.82l3.67 5.94q-2.68 2.22-6.14 3.36-3.47 1.14-7.18 1.14Zm19.51-25.59v-10.2h25.64v10.2h-25.64Zm100.53-25.99h9.31l-16.14 50.79h-9.8q-1.69 0-2.33-2.18l-9.11-29.35q-.44-1.49-.81-2.95-.37-1.46-.62-2.94-.3 1.48-.67 2.99-.37 1.51-.82 3l-9.25 29.25q-.6 2.18-2.63 2.18h-9.4l-16.09-50.79h9.75q1.34 0 2.28.65.94.64 1.24 1.63l7.27 27.13q.55 2.22.97 4.35.42 2.13.72 4.26.54-2.13 1.16-4.26.62-2.13 1.31-4.35l8.42-27.23q.29-.99 1.16-1.63.87-.65 2.1-.65h5.4q1.29 0 2.2.65.92.64 1.21 1.63l8.17 27.23q.64 2.22 1.21 4.38.57 2.15 1.12 4.28.64-4.21 1.83-8.66l7.47-27.13q.35-.99 1.24-1.63.89-.65 2.13-.65Zm16.63 0h12.28v50.79h-12.28v-50.79Zm13.96-14.8q0 1.59-.64 2.97-.65 1.39-1.71 2.43-1.06 1.04-2.5 1.66-1.44.61-3.07.61-1.58 0-2.99-.61-1.41-.62-2.45-1.66-1.04-1.04-1.66-2.43-.62-1.38-.62-2.97 0-1.63.62-3.07.62-1.43 1.66-2.47 1.04-1.04 2.45-1.66 1.41-.62 2.99-.62 1.63 0 3.07.62t2.5 1.66q1.06 1.04 1.71 2.47.64 1.44.64 3.07Zm21.38 17.03.85 4.01q1.53-1.53 3.24-2.85 1.71-1.31 3.61-2.22 1.91-.92 4.09-1.44 2.17-.52 4.75-.52 4.16 0 7.37 1.41 3.22 1.41 5.37 3.96 2.16 2.55 3.27 6.09 1.11 3.54 1.11 7.8v32.32h-12.22v-32.32q0-4.66-2.13-7.21t-6.48-2.55q-3.17 0-5.94 1.44-2.78 1.44-5.25 3.91v36.73h-12.23v-50.79h7.48q2.37 0 3.11 2.23Zm77.13 33.51v-22.77q-2.08-2.52-4.53-3.56t-5.28-1.04q-2.77 0-4.99 1.04-2.23 1.04-3.82 3.14-1.58 2.1-2.42 5.35-.84 3.24-.84 7.64 0 4.46.71 7.55.72 3.1 2.06 5.05 1.34 1.96 3.27 2.82 1.93.87 4.3.87 3.81 0 6.49-1.58 2.67-1.59 5.05-4.51Zm0-58.51h12.22v73.56h-7.47q-2.43 0-3.07-2.23l-1.04-4.9q-3.07 3.52-7.05 5.69-3.99 2.18-9.29 2.18-4.15 0-7.62-1.73-3.46-1.73-5.96-5.02-2.5-3.3-3.86-8.15-1.37-4.85-1.37-11.09 0-5.64 1.54-10.49 1.53-4.85 4.4-8.41 2.88-3.57 6.88-5.57 4.01-2.01 9.01-2.01 4.26 0 7.28 1.34 3.02 1.34 5.4 3.61v-26.78Zm46.77 21.98q5.65 0 10.27 1.83 4.63 1.83 7.92 5.2 3.3 3.37 5.08 8.22 1.78 4.85 1.78 10.84 0 6.04-1.78 10.89-1.78 4.85-5.08 8.26-3.29 3.42-7.92 5.25-4.62 1.83-10.27 1.83-5.69 0-10.34-1.83-4.66-1.83-7.95-5.25-3.29-3.41-5.1-8.26-1.8-4.85-1.8-10.89 0-5.99 1.8-10.84 1.81-4.85 5.1-8.22 3.29-3.37 7.95-5.2 4.65-1.83 10.34-1.83Zm0 42.92q6.34 0 9.38-4.26 3.05-4.26 3.05-12.47 0-8.22-3.05-12.53-3.04-4.3-9.38-4.3-6.43 0-9.53 4.33-3.09 4.33-3.09 12.5 0 8.16 3.09 12.45 3.1 4.28 9.53 4.28Zm97.62-42.13h9.3l-16.13 50.79h-9.8q-1.69 0-2.33-2.18l-9.11-29.35q-.44-1.49-.82-2.95-.37-1.46-.61-2.94-.3 1.48-.67 2.99-.37 1.51-.82 3l-9.26 29.25q-.59 2.18-2.62 2.18h-9.4l-16.09-50.79h9.75q1.34 0 2.28.65.94.64 1.23 1.63l7.28 27.13q.54 2.22.97 4.35.42 2.13.71 4.26.55-2.13 1.17-4.26.62-2.13 1.31-4.35l8.41-27.23q.3-.99 1.17-1.63.86-.65 2.1-.65h5.4q1.28 0 2.2.65.91.64 1.21 1.63l8.17 27.23q.64 2.22 1.21 4.38.57 2.15 1.12 4.28.64-4.21 1.83-8.66l7.47-27.13q.35-.99 1.24-1.63.89-.65 2.13-.65Zm49.99 5.5-2.77 4.4q-.49.8-1.04 1.12-.54.32-1.39.32-.89 0-1.9-.5-1.02-.49-2.35-1.11-1.34-.62-3.05-1.11-1.7-.5-4.03-.5-3.61 0-5.67 1.54-2.05 1.53-2.05 4 0 1.64 1.06 2.75 1.07 1.12 2.82 1.96 1.76.84 3.99 1.51 2.23.67 4.53 1.46 2.3.79 4.53 1.8 2.22 1.02 3.98 2.58 1.76 1.56 2.82 3.74 1.07 2.17 1.07 5.24 0 3.67-1.32 6.76-1.31 3.09-3.88 5.35-2.57 2.25-6.36 3.51-3.79 1.26-8.74 1.26-2.62 0-5.12-.47t-4.8-1.31q-2.3-.84-4.26-1.98-1.96-1.14-3.44-2.48l2.82-4.65q.55-.84 1.29-1.28.74-.45 1.88-.45t2.15.64q1.02.65 2.35 1.39 1.34.74 3.15 1.38 1.8.65 4.58.65 2.17 0 3.73-.52t2.58-1.36q1.01-.84 1.48-1.96.47-1.11.47-2.3 0-1.78-1.06-2.92-1.07-1.14-2.82-1.98-1.76-.84-4.01-1.51-2.26-.67-4.61-1.46-2.35-.79-4.6-1.86-2.25-1.06-4.01-2.69-1.76-1.64-2.82-4.01-1.07-2.38-1.07-5.75 0-3.11 1.24-5.94 1.24-2.82 3.64-4.92 2.4-2.1 5.99-3.37 3.59-1.26 8.29-1.26 5.25 0 9.55 1.73 4.31 1.74 7.18 4.56Zm-380.83 164.88q-6.63 0-10.17-3.74-3.54-3.73-3.54-10.32v-28.36h-5.2q-.99 0-1.68-.64-.69-.65-.69-1.93v-4.85l8.17-1.34 2.57-13.86q.25-.99.94-1.54.69-.54 1.78-.54h6.34v15.99h13.56v8.71h-13.56v27.52q0 2.38 1.16 3.72 1.17 1.33 3.19 1.33 1.14 0 1.91-.27t1.34-.57q.57-.3 1.01-.57.45-.27.89-.27.55 0 .89.27.35.27.75.82l3.66 5.94q-2.67 2.23-6.14 3.36-3.46 1.14-7.18 1.14Zm56.24-51.58h9.8l-27.67 64.75q-.55 1.29-1.41 1.95-.87.67-2.65.67h-9.11l9.5-20.39-20.54-46.98h10.74q1.44 0 2.25.7.82.69 1.22 1.58l10.79 26.33q.54 1.34.91 2.68.38 1.33.72 2.72l.89-2.75q.45-1.36.99-2.7l10.2-26.28q.4-.99 1.31-1.63.92-.65 2.06-.65Zm28.11 14.85v22.77q2.08 2.53 4.53 3.57t5.32 1.04q2.77 0 5-1.04t3.79-3.17q1.56-2.13 2.4-5.37.84-3.24.84-7.65 0-4.45-.72-7.55-.71-3.09-2.05-5.02-1.34-1.93-3.24-2.82-1.91-.89-4.33-.89-3.82 0-6.49 1.6-2.67 1.61-5.05 4.53Zm-1.63-12.62.99 4.7q3.12-3.51 7.08-5.69 3.96-2.18 9.3-2.18 4.16 0 7.6 1.74 3.44 1.73 5.94 5.02 2.5 3.29 3.86 8.12 1.36 4.82 1.36 11.06 0 5.69-1.53 10.54-1.54 4.86-4.38 8.42-2.85 3.56-6.88 5.57-4.04 2-9.04 2-4.25 0-7.27-1.31-3.02-1.31-5.4-3.64v20.79h-12.22v-67.37h7.47q2.38 0 3.12 2.23Zm55.29 17.33h23.07q0-2.38-.67-4.48-.67-2.11-2.01-3.69-1.33-1.59-3.39-2.5-2.05-.92-4.77-.92-5.3 0-8.34 3.02-3.05 3.02-3.89 8.57Zm31.18 7.37h-31.43q.3 3.91 1.39 6.76 1.09 2.84 2.87 4.7 1.78 1.86 4.23 2.77 2.45.92 5.42.92 2.97 0 5.13-.69 2.15-.7 3.76-1.54 1.61-.84 2.82-1.53 1.21-.7 2.35-.7 1.53 0 2.28 1.14l3.51 4.46q-2.03 2.37-4.55 3.98-2.53 1.61-5.27 2.58-2.75.96-5.6 1.36-2.84.39-5.52.39-5.29 0-9.85-1.75-4.55-1.76-7.92-5.2-3.36-3.44-5.29-8.52-1.93-5.07-1.93-11.75 0-5.2 1.68-9.78 1.68-4.58 4.82-7.97 3.15-3.39 7.68-5.37 4.53-1.98 10.22-1.98 4.8 0 8.86 1.54 4.06 1.53 6.98 4.48 2.92 2.94 4.58 7.22 1.66 4.28 1.66 9.78 0 2.77-.6 3.74-.59.96-2.28.96Zm-310.24 133.5h12.87v9.16h-39.6v-9.16h14.51v-41.73q0-2.47.15-5.09l-10.3 8.61q-.89.69-1.76.86-.86.18-1.63.03-.77-.15-1.36-.52-.6-.37-.89-.82l-3.86-5.29 21.82-18.57h10.05v62.52Zm74.01-26.63q0 9.36-2.01 16.26-2 6.91-5.54 11.41-3.54 4.51-8.37 6.71-4.82 2.2-10.42 2.2-5.59 0-10.37-2.2-4.78-2.2-8.29-6.71-3.51-4.5-5.49-11.41-1.98-6.9-1.98-16.26 0-9.4 1.98-16.28 1.98-6.88 5.49-11.39 3.51-4.5 8.29-6.71 4.78-2.2 10.37-2.2 5.6 0 10.42 2.2 4.83 2.21 8.37 6.71 3.54 4.51 5.54 11.39 2.01 6.88 2.01 16.28Zm-12.63 0q0-7.77-1.14-12.87-1.13-5.1-3.04-8.12-1.91-3.02-4.38-4.23-2.48-1.21-5.15-1.21-2.62 0-5.07 1.21t-4.33 4.23q-1.88 3.02-3 8.12-1.11 5.1-1.11 12.87t1.11 12.87q1.12 5.1 3 8.12 1.88 3.02 4.33 4.23 2.45 1.21 5.07 1.21 2.67 0 5.15-1.21 2.47-1.21 4.38-4.23 1.91-3.02 3.04-8.12 1.14-5.1 1.14-12.87Zm45.3 24.41h18.36q1.98 0 3.14 1.11 1.17 1.11 1.17 2.94v7.33h-49.11v-4.06q0-1.24.52-2.6t1.66-2.45l21.73-21.78q2.72-2.77 4.88-5.29 2.15-2.53 3.59-5 1.43-2.48 2.2-5.03.77-2.55.77-5.37 0-2.57-.75-4.53-.74-1.95-2.1-3.29t-3.27-2q-1.9-.67-4.28-.67-2.18 0-4.03.62-1.86.61-3.3 1.73-1.43 1.11-2.42 2.6-.99 1.48-1.49 3.26-.84 2.28-2.17 3.02-1.34.75-3.86.35l-6.44-1.14q.74-5.15 2.87-9.03 2.13-3.89 5.32-6.49 3.2-2.6 7.33-3.91t8.88-1.31q4.95 0 9.06 1.46t7.03 4.13q2.92 2.68 4.56 6.44 1.63 3.76 1.63 8.37 0 3.96-1.16 7.32-1.17 3.37-3.12 6.44-1.96 3.07-4.58 5.94-2.63 2.87-5.5 5.84l-16.13 16.48q2.32-.69 4.63-1.06 2.3-.37 4.38-.37Zm40.68-15.6h21.78v-23.41q0-3.32.45-7.33l-22.23 30.74Zm32.43 0h9.01v7.08q0 .99-.65 1.71-.64.72-1.83.72h-6.53v17.47h-10.65v-17.47h-30.19q-1.24 0-2.18-.77-.94-.77-1.19-1.91l-1.28-6.18 33.9-45.3h11.59v44.65Zm45.54.25 17.37 26.73h-11.78q-1.34 0-2.15-.69-.82-.7-1.36-1.59l-10.75-17.67q-.24.84-.56 1.59-.33.74-.72 1.38l-9.51 14.7q-.54.84-1.33 1.56-.79.72-1.98.72h-10.94l17.42-26.19-16.73-24.6h11.78q1.34 0 1.98.37.65.38 1.14 1.22l10.64 16.93q.55-1.69 1.54-3.32l8.56-13.37q1.09-1.83 2.82-1.83h11.24l-16.68 24.06Zm56.03 17.57h12.87v9.16h-39.6v-9.16h14.5v-41.73q0-2.47.15-5.09l-10.29 8.61q-.89.69-1.76.86-.87.18-1.63.03-.77-.15-1.36-.52-.6-.37-.9-.82l-3.86-5.29 21.83-18.57h10.05v62.52Zm74-26.63q0 9.36-2 16.26-2.01 6.91-5.54 11.41-3.54 4.51-8.37 6.71-4.83 2.2-10.42 2.2t-10.37-2.2q-4.78-2.2-8.29-6.71-3.52-4.5-5.5-11.41-1.98-6.9-1.98-16.26 0-9.4 1.98-16.28 1.98-6.88 5.5-11.39 3.51-4.5 8.29-6.71 4.78-2.2 10.37-2.2 5.59 0 10.42 2.2 4.83 2.21 8.37 6.71 3.53 4.51 5.54 11.39 2 6.88 2 16.28Zm-12.62 0q0-7.77-1.14-12.87t-3.04-8.12q-1.91-3.02-4.38-4.23-2.48-1.21-5.15-1.21-2.62 0-5.07 1.21t-4.34 4.23q-1.88 3.02-2.99 8.12-1.11 5.1-1.11 12.87t1.11 12.87q1.11 5.1 2.99 8.12 1.89 3.02 4.34 4.23 2.45 1.21 5.07 1.21 2.67 0 5.15-1.21 2.47-1.21 4.38-4.23 1.9-3.02 3.04-8.12 1.14-5.1 1.14-12.87Zm45.29 24.41h18.37q1.98 0 3.14 1.11 1.16 1.11 1.16 2.94v7.33h-49.1v-4.06q0-1.24.52-2.6t1.66-2.45l21.73-21.78q2.72-2.77 4.88-5.29 2.15-2.53 3.58-5 1.44-2.48 2.21-5.03.76-2.55.76-5.37 0-2.57-.74-4.53-.74-1.95-2.1-3.29t-3.27-2q-1.91-.67-4.28-.67-2.18 0-4.04.62-1.85.61-3.29 1.73-1.43 1.11-2.42 2.6-.99 1.48-1.49 3.26-.84 2.28-2.18 3.02-1.33.75-3.86.35l-6.43-1.14q.74-5.15 2.87-9.03 2.13-3.89 5.32-6.49 3.19-2.6 7.33-3.91 4.13-1.31 8.88-1.31 4.95 0 9.06 1.46t7.03 4.13q2.92 2.68 4.55 6.44 1.64 3.76 1.64 8.37 0 3.96-1.17 7.32-1.16 3.37-3.11 6.44-1.96 3.07-4.58 5.94-2.63 2.87-5.5 5.84l-16.14 16.48q2.33-.69 4.63-1.06 2.3-.37 4.38-.37Zm40.69-15.6h21.78v-23.41q0-3.32.45-7.33l-22.23 30.74Zm32.43 0h9v7.08q0 .99-.64 1.71t-1.83.72h-6.53v17.47h-10.65v-17.47h-30.19q-1.24 0-2.18-.77-.94-.77-1.19-1.91l-1.29-6.18 33.91-45.3h11.59v44.65Z"/></svg>