<?xml version="1.0" encoding="UTF-8"?>
<svg  viewBox="0 0 2048 2048" width="24" height="24" xmlns="http://www.w3.org/2000/svg">
<path transform="translate(974)" d="m0 0h102l4 2 29 6 20 6 19 7 20 9 20 11 12 8 11 8 16 13 12 11 15 15 9 11 10 13 16 24 17 3 18 6 16 8 16 10 13 12 8 8 11 15 10 19 6 17 4 20v29l-6 36-12 65-16 88-9 48-10 56-10 53-10 56-5 23-6 18-8 16-8 12-12 14-1 2 10 3 88 39 32 14 41 18 43 19 24 12 21 13 12 9 10 8 11 9 23 23 9 11 13 17 12 19 8 14 11 24 9 25 8 32 4 29 14 138 32 314 20 196 2 19v8l-1 1h-63l-2-6-19-185-21-207-25-244-5-46-6-26-9-25-11-23-11-18-9-12-8-10-4-4v-2h-2l-7-8-10-9-17-13-14-9-18-10-24-11-82-36-113-50-22-9-1 96-4 10-8 11h-2l-2 4-11 12-9 11-7 7-9 11-14 15-6 8h-2l-2 4-11 12-9 11-14 15-7 8-9 10-6 8h-2l-2 4-11 12-9 11-7 7-9 11-12 13-9 11-11 11-10 5-4 1h-13l-10-4-10-9-13-15-12-13-7-8-12-14-12-13-9-11-12-13-7-8-9-10-9-11-14-15-9-11-12-13-7-8-9-10-9-11-13-14-7-8-12-15-3-7-1-7-1-91-29 13-41 18-39 17-36 16-30 13-43 19-20 9-17 10-16 12-10 9-3 3h-2l-2 4-10 11-12 17-10 18-9 23-6 23-3 19v38l3 20 5 19 7 19 14 29 22 44 9 17 59 118 10 19 62 124 9 17 41 82 5 8v2h2l5 5 9 4h16l10-4 28-17 55-33 16-10 7-7 4-10 1-9-2-9-9-19-12-22-18-34-15-28-12-23-8-14-8-16-12-22-13-25-8-14-8-16-30-56-18-34-15-28-17-32-15-28-9-17-3-8-1-8 2-10 6-11 7-6 9-4 4-1h10l11 4 8 7 6 8 15 28 18 34 15 28 11 20 8 16 8 14 8 16 15 28 17 32 15 28 12 23 12 22 12 23 12 22 18 34 8 14 2 2 55 14 50 13 16 6 13 9 9 10 8 14 4 14 1 12-2 12-1 3 18 4 65 16 95 24 15 6 15 9 12 11 8 9 9 14 15 26 11 19 13 22 5 3 12 5 34 17 14 9 9 8 9 13 5 11 3 10 1 8v14l-3 14-5 12-8 17-10 19-8 14-9 10-10 7-11 5-13 3h-12l-15-4-46-23-11-8-10-10-7-11-4-8-4-14-1-14 2-14 5-15 8-16 12-23 5-9 1-5-10-18-10-17-16-28-6-8-9-5-12-4-73-18-92-23-2-1-1 5-7 14-9 10-9 8-15 7-15 3h-12l-23-5-86-22-8-2h-5l-13 8-35 21-17 10-16 7-16 4-7 1h-15l-17-3-17-6-15-9-12-11-7-7-10-15-16-32-3-5v164l-1 1h-64l-1-1-1-201-62-16-57-15-13-5-11-7-10-10-8-13-4-10-2-9v-15l5-24 12-47 5-14 8-12 9-9 11-7 8-4 13-3h17l14 3 4 1-3-7-12-25-8-16-14-27-46-92-9-23-7-26-4-22-2-20v-27l3-28 5-23 8-26 11-26 13-23 10-14 11-14 15-16 13-12 17-13 15-10 20-11 36-16 116-51 41-18 24-10-1-4-10-12-9-14-8-16-5-15-6-29-16-88-11-59-17-93-16-88-10-54-3-24v-10l2-18 5-19 7-17 9-15 9-12 7-8h2l1-3 14-11 15-10 16-7 16-5 16-3 5-6 7-11 12-16 8-10 9-10 3-4h2l2-4h2l1-3 8-7 14-12 18-13 25-15 25-12 28-10 24-6 22-4zm30 64-24 2-25 5-20 6-21 9-19 10-16 11-14 11-16 15-9 9v1h367l-3-5-15-15-11-9-13-10-18-11-17-9-21-8-21-6-14-3-18-2-15-1zm-231 144-15 2-12 4-12 7-10 9-8 9-8 15-3 12-1 14 6 36 16 88 16 87 20 109 16 87 4 16 5 12 7 10 8 9 13 9 12 5 13 3h367l14-3 16-8 8-6 5-4 7-9 6-10 5-16 12-64 11-59 10-56 10-53 10-56 19-103 3-18v-19l-4-15-7-13-9-11-12-9-12-6-9-3-15-2zm92 608-1 3v84l3 7 14 15 7 8 12 14 11 12 7 8 9 10 7 8 8 10h2l2 4 10 11 7 8 12 14 12 13 7 8 9 10 9 11 12 12 12-12 7-8 12-14 3-3v-2h2l7-8 12-14 9-10 7-8 9-10 9-11 5-5v-2h2l7-8 12-14 9-10 7-8 9-10 9-11 5-5v-2h2l3-4v-91zm-393 619-15 60 6 3 70 18 38 10 5 1-4-9-12-25-8-15-11-23-4-4-35-9-27-7zm453 116-2 23-4 17-6 14-3 5v3l51 13 3 1h7l11-46 3-14-9-3-46-12zm389 260-8 16-11 23 1 6 9 6 26 13 10-19 10-21-1-6-16-9-19-9z"/>
<path transform="translate(31,1855)" d="m0 0h1109l10 2 8 4 10 10 10 15 16 23 13 19 14 20 11 16 13 18h155l9-12 16-23 9-13 13-19 14-20 13-19 9-12 7-5 8-3 7-1h510l12 2 10 6 7 8 4 6v21l-7 11-8 7-7 3-6 1-499 1-1 5-7 9-15 22-12 17-6 8 536 1 11 2 8 4 7 7 6 9v24h-2l-6 9-7 6-4 2h-3v2h-2e3v-2l-7-2-10-9-5-9v-20l6-10 9-8 9-4 4-1 1136-1-4-7-13-18-15-22-10-14-1096-1-11-4-9-8-6-10v-20l6-10 9-8 9-4z"/>
<path transform="translate(832,303)" d="m0 0h382l13 2 10 6 7 8 4 9v16l-32 128-6 12-7 7-9 4-6 1h-330l-11-4-9-8-6-12-19-75-13-53v-16l4-9 7-8 10-6zm41 65 15 61 1 2h270l15-59v-4z"/>
<path transform="translate(1406,1215)" d="m0 0 13 2 8 4 7 7 5 10 4 22 13 95 10 73 1 7-6-2-13-5-15-3h-25l-8 1-2-9-14-100-8-58v-19l4-10 2-3h2l2-4 10-6z"/>
<path transform="translate(1530,1541)" d="m0 0h17l9 4 9 8 5 9 1 4v14l-4 9-6 8-61 61-1 2h-2v2h-2v2l-7 6-1 2h-2l-2 4h-2l-2 4h-2l-2 4-13 13-8 6-10 4h-15l-12-6-7-8-4-8-2-7 1-10 4-10 5-7h2v-2h2v-2l7-6 5-6h2l2-4h2l2-4 8-8h2l2-4h2l2-4h2l2-4h2l2-4h2l2-4 52-52z"/>
<path transform="translate(1588,1665)" d="m0 0h15l9 4 8 6 6 9 2 7v13l-4 10-8 9-14 8-21 10-16 8-23 12-22 11-9 3h-12l-9-3-9-7-6-10-2-5v-15l4-9 6-8 11-7 88-44z"/>
<path transform="translate(1410,1484)" d="m0 0h8l11 3 9 7 6 9 3 10v7l-3 10-14 29-33 66-6 7-8 5-5 2-12 1-8-2-8-4-7-7-6-12-1-8 2-10 11-23 14-28 11-23 11-22 4-6 7-6 9-4z"/>
<path transform="translate(1086,1695)" d="m0 0 10 1 9 4 14 10 13 10 12 9 19 14 9 7 8 9 4 9v16l-6 12-9 8-7 3-5 1h-11l-11-4-19-14-21-16-19-14-11-9-6-8-3-7-1-8 2-11 4-8 5-6 10-6z"/>
<path transform="translate(956,1727)" d="m0 0h7l10 3 12 7 39 26 10 9 5 10 1 3v14l-7 14-7 6-8 4-5 1h-11l-11-4-39-26-13-9-7-8-4-9-1-11 2-9 6-10 7-6 9-4z"/>
<path transform="translate(19,2047)" d="m0 0"/>
<path transform="translate(2047,1899)" d="m0 0"/>
</svg>
