<?xml version="1.0" encoding="UTF-8"?>
<svg  viewBox="0 0 2048 2048" width="24" height="24" xmlns="http://www.w3.org/2000/svg">
<path transform="translate(826,82)" d="m0 0h12l9 3 9 7 6 9 2 7 1 226 10 7 51 34 5-1 44-29 15-10 1-222 3-12 6-9 9-7 8-3h13l12 4 21 10 22 13 14 10 13 10 10 9 2 1v2l4 2 10 10v2h2l9 11 10 12 16 24 9 16 11 23 9 25 7 28 4 25 1 11v44l-3 24-5 25-9 29-11 26-12 22-14 21-10 13-8 10h-2l-2 4-21 21h-2l-2 4h-2l-2 4-8 11-8 16-4 15-2 20-1 64 184-1 8-7 21-21 1-2h-60l-11-4-10-9-5-11-1-9v-129l2-9 4-8 5-6 10-6 11-2h55l-39-39-7-11-2-13 3-12 6-9 82-82 5-6 10-8 9-4 12-1 10 3 9 6 38 38 1-53 2-11 4-8 5-6 10-6 10-2h129l12 2 8 4 7 7 5 10 1 3 1 57 1 3h2l2-4 15-15 7-8 8-8h2v-2l10-7 5-2 12-1 8 2 8 4 10 9 86 86 7 11 2 9-1 10-6 12-9 10-25 25h-2v2l-5 4 54 1 11 2 8 4 7 7 5 9 1 4v142l-4 10-9 10-9 4-5 1-47 1h-12l29 29 28 1 11 3 8 6 6 7 12 23 9 19 9 17 9 19 9 17 9 19 24 48 9 17 9 19 9 17 9 19 9 17 5 12 1 4v13l-7 14-7 6-9 4-6 1h-98l-1 349h8l21 5 15 6 15 8 12 9 10 9 7 7 11 15 9 17 5 13 4 17 2 18-1 19-4 20-7 19-9 16-10 13-11 12-13 10-18 11-21 12-26 15-17 10-28 16-24 14-52 30-24 14-23 13-27 16-25 14-27 16-25 14-22 13-26 15-21 12-26 15-14 8-24 14-28 16-24 14-26 15-15 8-22 9-25 7-24 4-13 1h-505l-21-2-24-5-24-8-24-11-29-14-5-2-1 49-4 10-8 9-8 4-9 2h-265l-11-4-10-9-5-11-1-8v-32h-229l-11-4-9-8-5-9-2-14v-447l2-9 4-8 5-5 8-6 5-2 8-1h224v-33l2-9 4-8 3-4h2v-2l10-6 11-2h253l12 1 9 4 8 7 5 7 2 7v61l60-15h3v-391h-100l-10-3-8-6-4-5-4-8-1-3v-14l5-13 9-17 11-23 9-17 11-23 9-17 11-23 9-17 11-23 9-17 11-23 9-17 11-23 8-15 5-6 10-6 7-2h36l-1-76-3-16-6-15-6-11-7-9-9-10-5-4v-2l-4-2-8-8-7-8-9-10-13-18-13-21-10-19-8-19-8-24-5-20-4-24-2-22v-26l2-23 4-24 7-26 8-23 12-26 10-17 8-12 8-11 4-6h2l2-4 12-14 16-16 11-9 17-13 17-11 18-10 19-9zm-28 87-11 9-14 12-10 10-9 11-10 13-12 19-11 23-9 27-5 22-3 30v16l3 27 5 23 9 27 8 16 8 15 13 19 9 10 7 8 29 29 11 15 9 16 5 11 7 21 3 15 1 10 1 80h63l1-96 2-10 4-8 4-5 10-6 4-1h16l9 4 8 7 5 10 1 3 1 102h63l1-68 2-24 4-17 7-20 10-19 8-12 9-11 5-5 1-3 4-2 20-20 9-11 10-13 12-20 10-21 6-16 6-23 3-19 1-10v-35l-3-23-6-25-8-22-8-16-8-15-12-17-9-11-9-10-9-9-11-9-10-8h-1l-1 9-1 181-4 9-4 6-12 9-44 29-43 29-10 5-4 1h-13l-10-4-43-29-44-29-11-8-3-1v-2h-2v-2h-2l-2-5-3-7-1-9-1-182zm707 151-1 3-1 80-6 12-8 7-11 5-15 6-3 1h-14l-8-3-9-7-26-26-7-8-17-17-4 2-40 40-2 1v3l8 7 46 46 6 10 2 9-1 10-8 20-5 10-3 3v2l-12 6-5 1-80 1-1 3v60l78 1 9 2 10 6 7 10 10 25 1 10-2 8-4 8-9 10-9 9-7 6v1h148l-3-2-17-5-18-8-11-7-14-11-10-10-12-17-9-17-6-18-3-15-1-11v-13l3-21 5-17 6-14 10-16 8-10 2-4h2l5-5 10-9 14-9 17-8 17-5 12-2 11-1h12l18 2 15 4 16 6 14 8 12 9 10 9 10 11 10 15 8 17 5 16 3 17v29l-3 16-7 21-8 15-10 14-9 10-10 9-15 10-14 7-17 6-11 3v1h148l-2-4-10-9-9-9-7-11-2-8v-7l5-15 8-18 6-7 11-6 6-1 78-1v-63l-81-1-10-4-8-7-4-7-5-11-5-13-1-4v-7l3-10 6-9 53-53-6-7-38-38-4 2-7 7-7 8-35 35-2 1v2l-5 2-9 4h-14l-11-4-18-8-8-7-4-7-2-5-1-8-1-75zm27 192-16 3-16 8-10 9-6 7-7 12-4 15-1 12 3 17 6 13 7 10 8 8 14 8 12 4 5 1h18l15-4 11-6 11-9 8-10 6-12 3-12v-19l-3-12-8-16-9-10-10-8-11-5-11-3zm-776 256-93 186-2 5h471l10-19 85-170v-2zm577 0 1 4 93 186 1 1h471l-2-5-92-184-2-2zm-87 107-7 15-34 68-9 17-10 21-9 16-8 7-7 3-5 1-388 1-1 25v349l8-1 36-9 16-3 16-2h35l24 3 29 7 64 17 213 57 36 10h2v-602zm67 1-1 30v588l8 3 42 11 37 10 19 7 16 9 12 9 11 10 1 2h2l2 4 8 10 12-6 13-8 286-165 10-5v-361l-390-1-10-4-8-7-10-18-48-96-10-21zm-928 532-1 19v492l188 1 3-1v-511zm1451 30-12 3-16 8-25 14-17 10-26 15-24 14-28 16-78 45-24 14-16 9-24 14-28 16-24 14-2 2v17l-2 18-5 18-7 16-10 16-8 10-12 12-16 11-17 9-18 6-15 3-8 1h-19l-23-4-64-17-172-46-82-22-63-17-12-5-8-9-4-9-1-4v-8l4-12 2-5h2l5-5 10-5 4-1 13 1 35 9 40 11 42 11 157 42 41 11 51 14 21 5 6 1h13l15-4 12-6 10-8 8-9 6-11 4-12 1-6v-15l-2-10-5-12-6-10-7-8-10-7-13-6-28-8-42-11-168-45-231-62-25-6-12-2h-33l-23 4-181 45-1 1-1 37v300l4 4 68 34 17 7 19 5 23 3h503l20-3 21-6 18-8 20-11 24-14 23-13 17-10 78-45 24-14 104-60 24-14 28-16 24-14 28-16 24-14 104-60 14-8 16-10 7-6v-2h2l9-14 5-15 1-6v-16l-4-15-7-13-11-12-13-8-10-4-10-2zm-1707 34-1 11v372l188 1 3-1v-383z"/>
</svg>
