<svg
        class="h-8 w-8 fill-current text-lime-600"
        viewBox="0 0 2048 2048"
        width="24"
        height="24"
        xmlns="http://www.w3.org/2000/svg"
>
    <path
            transform="translate(1427,9)"
            d="m0 0h22l156 22 39 6 11 4 9 7 6 8 3 10v13l-9 65-8 55-1 14 2 12 5 9 8 7 11 4h14l14-7 32-24 19-14 21-16 16-12 15-11 14-7 5-1h9l11 4 9 7 8 9 14 19 87 116 14 19 6 10 3 10v8l-4 12-10 12-19 14-21 16-18 13-13 10-19 14-18 14-7 9-3 8-1 11 2 9 6 10 9 7 9 3 46 7 84 12 13 4 8 5 8 9 3 6 1 1v29h-2l-1 11-25 175-4 12-6 9-7 6-11 4h-17l-84-12-37-5-17-1-10 4-7 5-7 11-2 8v9l3 10 7 11 16 21 14 19 16 21 14 19 15 20 6 11 1 4v15l-4 9-7 9-16 13-14 10-21 16-19 14-21 16-19 14-21 16-19 14-15 11-10 5-10 2-9-1-10-4-11-10-72-96-7-9-7-7-12-5h-16l-9 4-8 7-5 9-4 19-7 50-10 69-5 14-9 10-11 5-4 1h-16l-188-27-14-3-10-5-8-8-5-11-1-4v-12l18-126v-14l-3-9-5-8-8-6-13-4-12 1-14 7-10 8-19 14-13 10-19 14-13 10-19 14-13 9-9 4-4 1h-13l-10-4-10-9-14-18-14-19-16-21-14-19-16-21-14-19-16-21-14-19-7-11-4-10v-12l4-11 7-8 7-7 14-10 13-10 19-14 21-16 19-14 17-13 7-8 4-11v-13l-4-10-4-6-6-5-10-4-16-3-112-16-16-4-8-5-7-7-5-11-1-14 27-191 3-14 4-10 7-8 10-6 11-2 22 2 113 16h15l10-4 8-6 4-6 3-9v-14l-4-10-11-16-14-18-14-19-16-21-14-19-12-16-6-12-1-6v-11l-40 2-38 4-35 6-44 11-36 12-21 8-27 12-34 17-28 17-18 12-17 12-27 21-13 12-8 7-10 9-10 10-5 6-12 12-9 11-10 11-24 32-10 15-11 18-7 12-6 11-13 24-21 49-15 46-6 24-8 38-4 32-3 36v52l4 46 8 48 8 32 9 30 10 27 11 27 24 48 12 19 15 24 12 16 14 18 11 14 7 7 7 8 13 13 7 8 8 8 11 9 10 9 11 9 9 8 19 13 34 24 16 12 14 12 15 15 11 14 8 11 9 15 8 16 8 19 6 20 4 19 2 17 1 16 1 146 3 15 8 16 7 9 9 8 11 6 10 4 10 2h288l16-4 14-7 11-9 8-11 6-12 3-12 1-12 1-147 2-19 6-28 9-26 12-25 9-15 10-14 12-14 7-8 17-16 36-26 20-14 9-7 10-8 13-11 9-7 5 4 7 8 27 30 7 9-4 5-10 8-13 11-14 11-51 36-13 11-12 12-10 13-10 16-9 19-7 23-3 17-1 11-1 135-1 23-4 20-7 19-9 17-10 14-9 10h-2v2l-8 7-10 7-7 5-1 184-2 28-5 19-6 16-11 19-11 13-7 8-13 11-14 9-19 9-24 7-9 2h-174l-1-2-19-5-16-6-18-10-13-11-10-9-11-13-8-13-8-15-7-23-3-24-1-194-17-12-13-12-9-11-9-13-8-15-8-24-3-22-1-102h-2l-2 4-45 45-10 7-11 4h-10l-10-3-12-7-20-14-19-13-23-16-22-15h-2l-17 81-6 28-4 10-7 9-8 5-11 3h-145l-10-3-9-6-7-10-4-11-16-76-6-30-5 2-12 8-23 16-25 17-16 11-15 10-7 3-6 1h-8l-9-2-11-7-103-103-7-11-2-6v-14l5-12 10-15 9-13 11-16 9-13 24-36-6-2-99-21-12-4-6-4-8-8-3-5v-2l-2-1v-157l8-13 7-6 8-4 25-6 66-14 22-4-5-9-33-48-16-23-10-16-4-9v-16l4-9 6-8 54-54 5-6 7-6 5-6 7-6 5-6 5-5h2l2-4h2l1-3 8-7 10-6 7-2h11l10 3 14 9 17 12 12 8 23 16 19 13 10 7 3 1 1-7 17-82 6-25 6-11 8-7 8-4 5-1h15l2-31 8-55 12-52 9-28 9-27 15-36 11-24 12-22 9-17 16-25 13-20 16-21 10-13 9-11 9-10 7-8 12-13 9-10 13-12 8-8 8-7 11-10 14-11 18-14 15-11 26-17 16-10 46-25 34-15 20-8 44-15 52-13 48-8 19-2 34-2 30-1 40 2h29l18-14 19-14 21-16 28-21 14-10 10-5 4-1h13l12 5 10 9 75 100 7 8 7 6 11 4h13l10-4 9-8 4-8 3-12 10-68 8-56 4-13 6-9 7-6zm40 73-2 7-8 56-4 27-4 20-4 12-8 16-10 13-10 10-10 7-12 7-21 7-10 2-14 1-14-1-19-5-15-7-11-7-9-7-8-8-11-14-16-21-10-14-16-21-10-14-4 1-92 69-13 10 4 7 14 18 14 19 16 21 13 18 9 16 6 17 3 18-1 22-4 17-5 13-8 13-9 12-4 3v2l-4 2-9 7-14 8-17 6-14 3h-27l-92-13h-6l-3 15-7 50-9 63v5l10 2 84 12 21 5 12 5 14 8 10 8 3 1v2h2l2 4 8 9 9 16 6 15 3 15 1 13-2 20-4 15-5 11-6 11-10 13-13 12-19 14-21 16-19 14-13 10-7 5 3 6 14 19 16 21 14 19 16 21 9 12 8 10 5-2 21-16 19-14 17-13 19-14 15-9 15-6 15-3 7-1h14l16 2 16 5 16 8 12 9 8 7 11 14 9 17 5 15 2 12v24l-5 39-8 56v6l26 4 103 15 4-1 4-24 10-71 5-21 10-21 10-13 1-3 4-2 11-10 15-9 15-6 14-3 8-1h15l15 2 16 5 16 8 16 12 12 13 14 19 16 21 14 19 13 17 4 3 12-10 14-10 13-10 19-14 13-10 16-12 19-14-2-5-14-19-16-21-24-32-12-19-7-19-3-14-1-10 1-16 5-20 7-16 9-13 5-6v-2l4-2 7-7 15-10 11-5 16-5 16-2h11l28 3 70 10 9 1 2-8 12-82 6-43-7-2-90-13-21-5-19-9-12-9-8-7-9-11-9-15-5-12-4-15-1-7v-21l3-16 5-14 7-14 13-17 8-7 16-13 11-8 19-14 18-14 17-12 1-4-8-11-48-64-14-19-8-11-6 1-14 11-44 33-19 14-18 10-14 5-14 3-14 1-15-1-19-5-19-9-12-9-8-7-9-11-10-17-5-13-4-20v-17l3-25 11-77-1-4-127-18zm-1078 802-6 27-5 13-6 11-11 12-12 8-14 5-7 2h-22l-17-5-15-9-32-22-23-16-9-6-5 1-9 9v2l-4 2v2l-4 2v2l-4 2v2l-4 2v2l-4 2v2l-4 2v2l-4 2v2l-4 2v2l-4 2v2l-4 2v2l-4 2-5 5 2 5 12 18 16 23 18 27 8 16 3 14v16l-3 13-8 16-8 10-8 7-11 6-14 5-83 18-2 1-1 17v62l2 2 35 7 47 10 15 5 13 8 9 8 9 13 5 11 3 13v18l-4 15-7 14-13 19-12 17-8 12-13 19-2 5 55 55h2l1 3 5 1 17-12 22-15 16-11 15-10 12-6 14-4h22l11 3 9 4 10 6 10 9 7 10 6 13 5 19 14 68 2 5h79l3-9 14-67 5-18 7-14 8-10 8-7 12-7 16-5h24l11 3 16 8 19 13 16 11 23 16 10 7 5-1 69-69-1-7-8-18-10-16-8-11-12-13-9-9-15-11-20-14-17-12-13-10-11-8h-2l-9 16-11 15-9 11-17 17-13 10-15 10-16 9-19 8-19 6-25 5-16 2h-24l-24-3-20-5-24-9-14-6-22-14-11-8-13-12-15-15-13-18-10-15-10-21-6-17-5-19-3-17-1-12v-28l4-26 5-19 12-30 7-12 13-20 2-5h2l7-8 15-16 11-9 16-11 14-9 17-8 24-8 17-4 12-2-1-8-12-43-6-28-5-30zm51 178-20 2-21 5-19 8-15 9-10 8-10 9-11 12-11 17-9 20-6 23-1 7v32l4 20 7 19 6 12 9 14 11 12 6 7 16 12 10 6 19 9 23 6 7 1 26 1 24-4 24-9 16-9 11-8 12-11 5-5 11-14 8-14 6-13-1-4-7-8-12-13-12-14-11-13-9-12-16-21-16-25-14-22-12-23-10-19-5-9zm453 680v67h270l1-5v-54l-1-8zm0 136v39l3 16 8 16 7 9 10 9 16 8 12 3 7 1h145l13-2 12-5 9-5 7-5v-2l4-2 10-14 5-13 2-8 1-14v-29l-1-2z"
    />
    <path
            transform="translate(1445,323)"
            d="m0 0h31l21 2 23 4 23 6 24 9 25 12 21 13 19 14 10 9 8 7 12 12 7 8 12 15 12 18 9 16 8 16 8 20 6 19 5 22 3 19 2 32-2 31-4 25-8 30-10 25-8 16-8 14-7 11-14 19-9 11h-2l-2 4-14 14-8 7-18 14-15 10-18 10-21 10-25 9-24 6-24 4-27 2-29-1-28-4-24-6-21-7-23-10-17-9-17-11-12-9-10-8-12-11-17-17-11-14-11-15-12-20-8-16-8-18-8-25-5-21-3-19-1-12v-39l3-25 5-23 5-17 7-20 13-27 11-18 13-18 11-13 11-12 10-10 11-9 14-11 17-11 16-9 23-11 26-9 22-5 26-4zm2 69-24 3-24 6-18 7-23 12-14 9-13 11-11 9-7 7-9 11-12 15-12 22-8 16-7 21-5 22-2 21v25l3 24 6 24 6 16 8 16 11 20 11 13 8 10 9 10 11 9 13 11 21 12 17 9 22 8 17 4 22 3 22 1 24-2 21-4 16-5 16-6 28-15 11-8 11-9 13-11 9-10v-2h2l11-14 7-11 14-26 7-18 5-19 4-25v-36l-4-26-5-19-6-16-8-16-11-20-11-13-8-10-9-10-25-20-10-6-22-12-11-5-18-6-17-4-25-3z"
    />
    <path
            transform="translate(773,387)"
            d="m0 0 4 2 7 12 24 38 3 5-2 4-11 7-14 10-16 13-11 9-10 10-8 7-15 16-9 11-12 15-10 14-13 20-10 18-8 16-8 17-10 27-8 25-8 36-3 18-2 19-1 16v37l3 35 6 34 8 30 8 24 9 22 14 29 9 16 14 22 12 16 10 13 18 20 7 7 4 5 8 7 10 9 11 9 9 7 18 13 11 7 17 10 18 10 20 9 33 15 16 8 14 8 17 12 12 9 14 13 8 7 10 10 22 28 8 13 10 17 8 16 10 26 4 13 6 26 3 23 2 28-1 1h-68l-4-35-6-26-6-18-8-18-11-20-10-14-11-13-7-8-13-12-10-8-21-14-16-8-30-14-25-11-28-15-22-14-16-11-18-14-11-9-10-9-8-7-7-6v-2h-2l-7-8-14-14-9-11-11-13-14-19-16-24-14-25-7-12-13-29-9-23-12-37-9-41-4-28-2-17-1-15v-47l3-35 6-36 6-25 8-28 11-30 8-19 19-38 8-13 14-22 8-11 13-17 11-14 7-8h2l2-4 14-14 5-6 8-7 11-10 11-9 12-10 29-20z"
    />
    <path
            transform="translate(129,185)"
            d="m0 0 4 1 12 8 11 8 17 12 18 13 126 90 18 13 17 12 15 11 1 4-11 15-9 13-13 18-5 8-11-7-14-10-17-12-18-13-17-12-18-13-14-10-17-12-18-13-17-12-18-13-14-10-18-13-17-12-11-8 2-5 13-18 12-17 9-13z"
    />
    <path
            transform="translate(442)"
            d="m0 0h7l17 66 14 55 19 75 17 65 1 11-8 3-54 14-4-1-5-18-11-42-14-55-20-79-11-43-8-32 1-3 15-4 43-11z"
    />
    <path
            transform="translate(304,519)"
            d="m0 0 4 2 15 60-1 5-18 5-249 62h-5l-16-64 2-3 71-18 180-45z"
    />
    <path
            transform="translate(1660,1444)"
            d="m0 0 5 1 10 9 11 9 13 11 11 9 13 11 11 9 13 11 11 9 17 14 14 12 10 8 14 12 11 9 13 11 11 9 17 14 1 2-11 14-12 14-9 11-11 13-4-2-13-11-10-8-13-11-11-9-13-11-11-9-13-11-11-9-13-11-11-9-13-11-11-9-13-11-11-9-14-12-10-8-9-8 1-5 10-11 9-11 14-17 1-2h2l2-4z"
    />
    <path
            transform="translate(1472,1537)"
            d="m0 0h39l27 1 1 7v229l-1 2h-68l-1-1v-235z"
    />
    <path
            transform="translate(1676,1265)"
            d="m0 0h215l21 1 1 66-1 2-7 1h-228l-3-1-1-5v-62z"
    />
    <path
            transform="translate(995,1503)"
            d="m0 0h65l3 2v100l-2 1h-66l-1-1v-101z"
            fill="#020202"
    />
    <path
            transform="translate(316,1504)"
            d="m0 0"
    />
    <path
            transform="translate(2047,591)"
            d="m0 0"
    />
    <path transform="translate(438)" d="m0 0"/>
</svg>