<svg
        class="h-8 w-8 fill-current text-green-500"
        viewBox="0 0 2048 2048"
        width="24"
        height="24"
        xmlns="http://www.w3.org/2000/svg"
>
    <path
            transform="translate(1020,63)"
            d="m0 0h8l15 5 34 17 23 11 52 25 33 16 35 17 23 11 25 12 29 14 39 19 23 11 25 12 29 14 37 18 23 11 54 26 41 20 23 11 25 12 116 56 66 32 26 12 16 8 74 36 26 12 16 8 16 9 8 8 4 10 1 27v131l-1 1265-7 14-7 6-9 4-6 1h-137l-11-4-9-8-5-9-2-13v-926h-12l-21-3-21-6-18-8-16-9-14-11-12-11-11-12v-2l-5 3-14 15-12 11h-2l-1 552-7 14-8 7-8 3-6 1h-137l-11-4-9-8-5-9-2-12-1-543-7-7-8-7-8-8-5-6v-2l-5 3-14 15-10 9-14 10-18 10-21 8-21 5-15 2h-26l-20-3-21-6-18-8-16-9-14-11-10-9-8-8-6-8-7 6-9 10-12 11-14 10-18 10-21 8-21 5-15 2h-26l-20-3-21-6-18-8-16-9-14-11-10-9-8-8-6-8-7 6-9 10-12 11-14 10-18 10-21 8-21 5-15 2h-26l-20-3-21-6-18-8-16-9-14-11-10-9-8-8-5-6v-2l-5 3-14 15-12 11h-2l-1 552-7 14-8 7-8 3-6 1h-137l-11-4-9-8-5-9-2-13-1-542-7-7-8-7-8-8-5-6v-2l-5 3-14 15-10 9-14 10-18 10-21 8-21 5-15 2-11 1-1 933-4 10-6 8-8 5-5 2-6 1h-137l-11-4-9-8-5-9-2-14v-1408l2-9 6-9 9-8 28-14 48-23 35-17 25-12 35-17 29-14 23-11 35-17 25-12 35-17 23-11 33-16 62-30 50-24 35-17 58-28 23-11 35-17 58-28 23-11 35-17 58-28 23-11 33-16 29-14 23-11 13-6zm0 70-44 22-28 13-16 8-33 16-23 11-41 20-77 37-39 19-77 37-39 19-139 67-50 24-35 17-23 11-37 18-23 11-33 16-24 11v1h1569l-4-3-23-11-53-26-50-24-58-28-35-17-23-11-58-28-35-17-23-11-58-28-35-17-23-11-58-28-35-17-23-11-58-28-35-17-23-11-25-12-35-17-11-5zm-891 443-1 2v125l5 1h1783l3-1v-127zm32 192-1 2v92l2 21 5 17 9 17 9 11 10 10 15 10 11 5 12 4 11 2h23l15-3 13-5 13-7 12-9 9-9 9-13 7-14 4-13 2-11v-107zm256 0-1 11v85l2 19 3 11 5 12 6 11 9 11 10 10 15 10 16 7 18 4h23l15-3 13-5 13-7 12-9 9-9 9-13 7-14 4-13 2-12v-106zm256 0-1 11v85l2 19 3 11 5 12 6 11 9 11 10 10 15 10 11 5 12 4 11 2h23l15-3 13-5 13-7 13-10 8-8 9-13 7-14 4-13 2-11v-107zm256 0-1 11v85l2 19 3 11 5 12 6 11 9 11 10 10 15 10 11 5 12 4 11 2h23l15-3 13-5 13-7 13-10 8-8 9-13 7-14 4-13 2-11v-107zm256 0-1 11v85l2 19 3 11 5 12 6 11 9 11 10 10 15 10 11 5 12 4 11 2h23l15-3 13-5 13-7 13-10 8-8 9-13 7-14 4-13 2-11v-107zm256 0-1 11v85l2 19 3 11 5 12 6 11 9 11 10 10 15 10 16 7 18 4h23l15-3 13-5 13-7 12-9 9-9 8-11 8-16 4-13 2-12v-106zm256 0-1 11v86l2 18 3 11 5 12 6 11 9 11 10 10 15 10 16 7 18 4h23l15-3 13-5 15-8 11-9 8-8 8-11 8-16 4-13 2-11v-107zm-1569 194v957h63v-908l-21-12-15-11-12-11-9-9-5-6zm1790 1-14 15-12 11-10 7-13 8-11 6-2 2v907h63l1-955zm-1377 58-17 2h-26l-18-1v481h63v-482zm1024 0-17 2h-26l-18-1v481h63v-482z"
    />
</svg>