<svg
        class="h-8 w-8 fill-current text-purple-500"
        viewBox="0 0 2048 2048"
        width="24"
        height="24"
        xmlns="http://www.w3.org/2000/svg"
>
    <path
            transform="translate(1212,431)"
            d="m0 0h454l7 2 5 5 2 3v142l-12 13-7 6-5 6-8 7-11 11-5 6-7 6-5 6-7 6-5 6h-2l-2 4-85 85h-2l-2 4-32 32h-2l-2 4h-2l-2 4h-2l-2 4h-2l-2 4h-2l-2 4h-2l-2 4h-2l-2 4h-2l-2 4h-2l-2 4h-2l-2 4h-2l-2 4h-2l-2 4h-2l-2 4h-2l-2 4h-2l-2 4h-2l-2 4h-2l-2 4h-2l-2 4h-2l-2 4h-2l-2 4h-2l-2 4h-2l-2 4h-2l-2 4h-2l-2 4h-2l-2 4h-2l-2 4h-2l-2 4h-2l-2 4h-2l-2 4h-2l-2 4h-2l-2 4h-2l-2 4h-2l-2 4h-2l-2 4h-2l-2 4h-2l-2 4h-2l-2 4h-2l-2 4h-2l-2 4h-2l-2 4h-2l-2 4h-2l-2 4h-2l-2 4h-2l-2 4h-2l-2 4h-2l-2 4h-2l-2 4h-2l-2 4h-2l-2 4h-2l-2 4h-2l-2 4h-2l-2 4h-2l-2 4h-2l-2 4h-2l-2 4h-2l-2 4h-2l-2 4h-2l-2 4h-2l-2 4h-2l-2 4h-2l-2 4h-2l-2 4h-2l-2 4h-2l-2 4h-2l-2 4h-2l-2 4h-2l-2 4h-2l-2 4h-2l-2 4h-2l-2 4h-2l-2 4h-2l-2 4h-2l-2 4h-2l-2 4h-2l-2 4h-2l-2 4h-2l-2 4h-2l-2 4h-2l-2 4h-2l-2 4h-2l-2 4h-2l-2 4h-2l-2 4h-2l-2 4h-2l-2 4h-2l-2 4h-2l-2 4h-2l-2 4h-2l-2 4h-2l-2 4h-2l-2 4h-2l-2 4h-2l-2 4h-2l-2 4h-2l-2 4h-2l-2 4h-2l-2 4h-2l-2 4h-2l-2 4h-2l-2 4h-2l-2 4h-2l-2 4h-2l-2 4h-2l-2 4h-2l-2 4h-2l-2 4h-2l-2 4h-2l-2 4h-2l-2 4h-2l-2 4-100 100h-2l-2 4h-2l-2 4h-2l-2 4-24 24h-2l-2 4h-2l-2 4-40 40h-2l-1 3-15 15-2 1h-460l-7-4-4-7-1-11v-127l3-5 837-837zm10 33-14 14v2l-4 2v2l-4 2v2l-4 2v2l-4 2v2l-4 2v2l-4 2v2l-4 2v2l-4 2v2l-4 2v2l-4 2v2l-4 2v2l-4 2v2l-4 2v2l-4 2v2l-4 2v2l-4 2v2l-4 2v2l-4 2v2l-4 2v2l-4 2v2l-4 2v2l-4 2v2l-4 2v2l-4 2v2l-4 2v2l-4 2v2l-4 2v2l-4 2v2l-4 2v2l-4 2v2l-4 2v2l-4 2v2l-4 2v2l-4 2v2l-4 2v2l-4 2v2l-4 2v2l-4 2v2l-4 2v2l-4 2v2l-4 2v2l-4 2v2l-4 2v2l-4 2v2l-3 1-6 7-6 5-6 7-6 5-6 7-6 5-6 7-6 5-6 7-6 5-6 7-6 5-6 7-6 5-6 7-6 5-6 7-6 5-6 7-6 5-6 7-6 5-6 7-6 5-6 7-6 5-6 7-6 5-6 7-6 5-7 8-5 4-7 8-386 386-4 3v2l-4 2-4 4v2l-4 2-4 5h274l223-223 8-7 16-13 16-10 16-8 14-5 22-5h33l19 4 16 6 5 1 538-538v-1h-130l-4 5-2 1v2l-3 1-5 6-4 3v2l-4 2v2l-4 2v2l-4 2v2l-4 2v2l-4 2v2l-4 2v2l-4 2v2l-4 2v2l-3 1-6 7-252 252-8 6-3 1h-8l-6-3-4-5-1-2v-10l6-9 289-289v-1h-114l-4 5-2 1v2l-3 1-7 8-5 4-5 5v2l-4 2v2l-3 1-6 7-113 113-7 5-3 1h-8l-6-3-4-5-1-2v-10l6-9 129-129v-1zm424 24-50 50v2l-4 2v2l-4 2v2l-4 2v2l-4 2v2l-4 2v2l-4 2v2l-4 2v2l-4 2v2l-4 2v2l-4 2v2l-4 2v2l-4 2v2l-4 2v2l-4 2v2l-4 2v2l-4 2v2l-4 2v2l-4 2v2l-4 2v2l-4 2v2l-4 2v2l-4 2v2l-4 2v2l-4 2v2l-4 2v2l-4 2v2l-4 2v2l-4 2v2l-4 2v2l-4 2v2l-3 1-5 6-7 6-5 6-7 6-5 6-7 6-5 6-7 6-5 6-7 6-5 6-7 6-5 6-7 6-7 8-527 527-6 5-1 3v79l5-2 7-8 787-787v-82zm-622 535-14 2-17 5-21 11-11 8-13 11-12 11-4 3v2l-4 2v2l-4 2-5 6-153 153-2 1v2l-4 2v2l-4 2-12 12v1h82l233-233v-3l-13-3-8-1zm-624 273v95h416l-1-95z"
            fill="#010101"
    />
    <path
            transform="translate(1666,623)"
            d="m0 0h369l6 2 7 6v145l-16 16-7 6-6 7-6 5-5 6-5 5h-2l-2 4h-2l-2 4h-2l-2 4h-2l-2 4h-2l-2 4h-2l-2 4h-2l-2 4h-2l-2 4-761 761-3 2h-459l-8-4-4-8-1-11v-121l2-8 7-7 7-2 155-1 122-122 6-4h11l6 4 4 5 1 2v10l-6 8-6 7-7 6-5 6-7 6-5 6-7 6-5 6-7 6-5 6-7 6-5 6-7 6-5 6-8 7-11 11h113l218-218 6-4h11l6 4 4 5 1 2v10l-6 8-2 3h-2l-2 4-116 116-6 5-6 7-7 6-5 6-7 6-5 6-7 6-5 6-8 7-15 15h81l797-797h-274l-2 4-5 4-7 8-24 24h-2l-2 4h-2l-2 4h-2l-2 4-80 80-4-1-20-20 1-4 101-101 6-5-14-3-6-5-3-5v-10l4-6 6-5zm348 57-34 34v2l-4 2v2l-4 2v2l-4 2v2l-4 2v2l-4 2v2l-4 2v2l-4 2v2l-4 2v2l-4 2v2l-4 2v2l-4 2v2l-4 2v2l-4 2v2l-4 2v2l-4 2v2l-4 2v2l-4 2v2l-4 2v2l-4 2v2l-4 2v2l-4 2v2l-4 2v2l-4 2v2l-4 2v2l-4 2v2l-4 2v2l-4 2v2l-4 2v2l-4 2v2l-4 2v2l-4 2v2l-4 2v2l-4 2v2l-4 2v2l-4 2v2l-4 2v2l-4 2v2l-4 2v2l-4 2v2l-4 2v2l-4 2v2l-4 2v2l-3 1-5 6-7 6-5 6-7 6-5 6-7 6-5 6-7 6-7 8-531 531-6 5-1 3v79l5-2 7-8 787-787v-82zm-1246 808v95h416l-1-95z"
            fill="#020202"
    />
    <path
            transform="translate(844,623)"
            d="m0 0h116l8 2 5 5 3 5v10l-4 6-5 4-3 1-46 1-7 8-81 81-9 6h-9l-6-3-5-6-2-7 2-8 11-12 59-59h-16l-12 12h-2l-1 3-7 6-2 3h-2l-2 4h-2l-2 4h-2l-2 4h-2l-2 4-16 16h-2l-1 3-7 6-7 8-527 527h-2l-2 4h-2l-2 4h-2l-2 4h-2l-2 4h-2l-2 4h-2l-2 4h-2l-2 4h-2l-2 4h-2l-2 4h-2l-2 4h-2l-2 4h-2l-2 4h-2l-2 4h-2l-2 4h-2l-2 4h-2l-2 4h-2l-2 4h-2l-2 4h-2l-2 4h-2l-2 4h-2l-2 4h-2l-2 4h-2l-2 4h-2l-2 4h-2l-2 4h-2l-2 4h-2l-2 4h-2l-2 4h-2l-2 4h-2l-2 4h-2l-2 4h-2l-2 4-6 5-5 6-7 6-5 6-7 6-5 6-7 6-5 6-8 7-15 15 406 1 9 2 7 8 1 2v92l4-2 7-8 88-88 6-4 6-1 9 3 6 7 1 2v10l-6 8-5 6-122 122-3 2h-460l-8-5-3-5v-142l840-840zm-811 865-1 3v92h416l-1-95z"
            fill="#020202"
    />
</svg>