<svg
        class="h-8 w-8 fill-current text-orange-500"
        viewBox="0 0 2048 2048"
        width="24"
        height="24"
        xmlns="http://www.w3.org/2000/svg"
>
    <path
            transform="translate(592,256)"
            d="m0 0h1202l24 3 17 4 25 9 16 8 15 8 17 12 11 9 20 18 11 12 14 17 11 16 11 18 10 18 12 26 10 28 8 29 6 31 3 22 2 30v33l-2 30-4 27-7 34-9 29-9 24-10 22-11 20-13 20-9 12-8 10-11 13-17 17-11 9-13 10-16 10-18 10-20 8-26 8-10 2h-4v125l-1 201-3 15-7 17-7 11-9 11-10 9-13 8-11 5-13 4-13 2-135 1-12 11-18 13-13 8-23 12-19 7-17 5-14 3h-4v167l-2 11-5 8-5 5-6 4-6 2h-14l-9-4-6-5-6-10-2-7v-168h-1136l-22-1-24-3-26-7-16-6 1 334 3 9 6 9 9 6 6 2 7 1h1161l10-2 10-6 6-8 3-7 1-5 1-29 4-12 8-9 8-4 3-1h14l10 4 6 5 5 7 3 11v30l-3 18-7 18-6 10-7 9-12 12-14 9-14 6-16 4-6 1h-1177l-15-3-14-5-14-8-11-9-7-7-10-14-8-17-4-17-1-12v-368l-23-23-7-8-10-12-13-18-15-25-10-19-12-29-9-27-7-28-4-21-4-33-1-14v-46l3-32 5-30 6-26 9-29 11-27 9-19 9-16 10-16 10-14 8-11h2l2-4 9-10 1-2h2l2-4 8-8h2v-2l11-9 14-11 15-10 18-10 16-7 21-7 24-5 20-2h116l-6-18-6-24-5-27-3-24-1-13-1-30 1-28 4-35 5-27 6-24 11-33 9-21 8-16 9-17 11-17 10-14 11-14 12-13 15-15 11-9 16-12 20-12 23-11 21-7 24-5zm12 60-23 2-17 4-19 7-19 10-14 10-13 11-7 6-7 8-8 8-13 18-10 15-10 18-9 19-9 24-7 24-5 23-3 18-3 33v36l4 38 6 30 9 30 6 16 4 1h114l9 2 8 5 6 7 4 10v10l-4 10-6 8-10 5-5 1-289 1-24 2-17 4-17 6-16 8-14 9-14 11-13 12-9 9-9 11-11 15-8 12-6 11-8 16-10 23-8 25-6 24-3 16-3 21-1 12v54l3 27 5 28 7 26 8 23 12 27 12 21 13 19 11 13 9 10 9 9 11 9 15 11 16 9 20 8 20 5 14 2 13 1h1162l22-1 20-3 16-5 15-6 17-9 17-12 15-13 14-14 11-14 8-11 11-18 11-21 8-19 9-27 6-24 5-29 2-20 1-22v-14l-2-32-4-28-6-26-5-18-9-24-9-20-9-17-11-17-9-12-9-11-12-13-15-13-17-12-23-12-21-7-14-3-8-1h-33l-21 4-18 6-16 8-15 9-14 11-10 9-16 16-13 17-7 10-9 15-12 23-9 23-7 21-6 24-4 22-3 25-1 22v19l2 31 5 32 6 25 10 30 11 25 8 16 3 7v13l-5 11-3 3v2l-4 2-9 4h-16l-9-4-4-2-2-4-8-13-12-25-9-23-9-28-6-26-5-29-3-29-1-35 2-36 5-35 7-32 8-26 10-26 12-25 11-20 14-21 10-13 11-13v-2h2l7-8 5-4v-2l4-2 1-3-620-1-10-4-5-4-5-7-3-10 1-12 5-10 8-7 6-3 5-1h778l21 2 20 4 27 9 27 13 12 8 1-2-10-24-10-31-7-30-5-32-2-20-1-17v-32l2-28 4-28 6-29 8-28 9-25 11-24 11-21 12-19 14-19 9-11v-2h2l7-8 13-13v-2zm1167 0-18 2-17 4-17 6-21 11-17 12-10 9-8 7-7 7-9 11-11 14-11 17-12 22-9 21-8 22-8 30-5 28-3 31v42l4 36 5 26 7 25 10 28 14 29 13 21 8 11 8 10 11 12 13 13 17 13 15 9 16 8 17 6 19 4 11 1h21l21-3 20-6 18-8 18-11 14-11 10-8v-2l4-2v-2h2l7-8 9-10 13-18 10-16 8-16 9-20 8-23 7-24 5-26 3-23 1-12v-49l-4-36-6-29-7-24-9-24-10-22-12-21-12-17-11-14-22-22-17-13-15-9-19-9-19-6-18-3-10-1zm-112 572 10 25 10 30 6 24 5 27 4 37v54l-4 37-5 27-7 28-11 33-8 18-9 19-12 21v1h84l10-4 10-9 4-8 2-10v-315l-5-2-25-6-19-7-24-11-14-9z"
    />
    <path
            transform="translate(1764,389)"
            d="m0 0h29l20 4 19 7 18 10 12 9 13 11 13 14 14 19 10 18 8 17 8 24 5 21 3 20 1 13v29l-2 22-5 25-6 20-6 15-8 17-8 13-10 14-11 13-14 14-12 9-15 9-15 7-16 5-14 3-21 1-18-2-16-4-16-6-15-8-14-10-10-9-7-6-7-8-10-12-12-19-10-19-8-21-6-22-4-22-2-22v-23l2-23 5-26 8-26 9-20 9-17 11-16 12-14 5-6 8-7 15-12 19-11 15-6 15-4zm10 60-17 3-17 8-13 10-11 11-8 11-9 15-7 15-6 18-4 19-2 14v35l4 25 7 23 9 20 9 14 8 10 5 6h2v2l14 11 16 8 16 4h16l16-4 16-8 13-10 7-7 11-14 10-17 8-20 5-18 4-23 1-22-2-25-4-20-8-24-8-17-10-15-12-14-11-9-13-8-14-5-13-2z"
    />
    <path
            transform="translate(1425,857)"
            d="m0 0h24l22 4 16 6 16 8 12 8 10 8 12 11 11 12 12 17 10 17 10 23 7 21 6 29 2 15v44l-4 27-5 21-7 21-13 27-11 17-10 13-14 15-11 9-11 8-18 10-19 7-18 4-13 1h-11l-17-2-19-5-18-8-15-9-13-10-13-12v-2h-2l-9-11-11-15-10-18-9-19-8-24-5-22-3-21-1-17v-13l2-25 3-18 5-21 7-20 7-16 9-16 8-12 8-11 12-13 9-9 16-12 16-9 14-6 13-4zm0 61-12 3-16 8-10 8-10 9-10 13-8 13-9 19-6 18-4 18-2 20v24l2 18 5 22 7 20 12 23 10 13 4 5h2l2 4 14 11 15 8 16 4h19l15-4 14-7 12-9 14-14 10-15 9-17 7-19 5-20 3-25v-22l-3-24-5-20-7-19-10-19-10-14-9-10-12-10-14-8-17-5z"
    />
    <path
            transform="translate(1430,1012)"
            d="m0 0h13l12 6 9 10 5 11 3 12v15l-4 15-7 12-9 8-11 4h-10l-10-4-8-7-7-11-4-11-1-6v-16l3-12 5-10 9-10 8-5z"
    />
    <path
            transform="translate(1777,543)"
            d="m0 0 11 2 8 4 7 7 6 10 4 13 1 14-3 16-7 14-4 5-9 6-9 3h-9l-10-4-9-8-6-10-4-11-1-4v-18l3-13 7-13 9-8 9-4z"
    />
</svg>