<svg
        class="h-8 w-8 fill-current text-indigo-500"
        viewBox="0 0 2048 2048"
        width="24"
        height="24"
        xmlns="http://www.w3.org/2000/svg"
>
    <path
            transform="translate(318,15)"
            d="m0 0h1409l15 2 14 7 9 8 7 11 4 13 1 55-1 1880-3 11-6 11-6 7-11 7-11 4-8 1h-1417l-12-3-8-4-10-9-7-9-4-10-2-18v-1917l2-12 7-14 9-10 10-6 11-4zm51 97-1 20v1803l6 1h1303l2-1v-1823z"
    />
    <path
            transform="translate(1462,272)"
            d="m0 0h19l10 3 10 6 8 7 7 11 4 11v19l-5 14-10 13-256 256-12 8-14 4h-15l-13-4-9-6-5-4-6-8-5-10-2-6-1-10 2-13 4-10 7-10 189-189 5-6 7-6 5-6 8-7 23-23 6-7 4-4h2l2-4 8-7 8-6 10-5z"
    />
    <path
            transform="translate(1206,272)"
            d="m0 0h19l10 3 10 6 8 7 7 11 4 12v18l-5 14-10 13-128 128-12 8-14 4h-15l-13-4-9-6-5-4-6-8-5-10-2-6-1-10 2-13 4-10 7-10 17-17 5-6 8-7 27-27 5-6 7-6 5-6 7-6 5-6 8-7 11-11 5-6 7-6 2-3h2l2-4 8-7 8-6 10-5z"
    />
</svg>