<svg
        class="h-8 w-8 fill-current text-green-500"
        viewBox="0 0 2048 2048"
        width="24"
        height="24"
        xmlns="http://www.w3.org/2000/svg"
>
    <path
            transform="translate(218,1091)"
            d="m0 0h1397l9 3 9 7 5 8 2 6v13l-5 11-8 8-10 4-10 1-64 1 2 38 5 35 6 28 8 27 10 27 8 18 8 17 13 23 12 19 14 19 9 11 11 13 12 13 21 21 6 5v2l4 2 9 9h222l-7-8-9-10-11-14-12-15-11-16-14-22-14-25-8-17-7-15-11-28-9-28-7-28-6-32-4-34-2-36h-44l-9-2-9-6-5-6-4-8-1-5v-7l3-10 6-9 9-6 6-2h85l11 4 6 5 6 9 2 7 1 50 2 28 3 23 5 26 7 27 11 32 11 25 8 17 12 21 12 19 13 18 14 17 7 8 9 10 38 38 8 7 7 7 7 10 3 9-1 13-16 77-17 81-10 48-3 11-7 9-6 5-9 3-28 1h-112l-2 6-15 28-96 176-12 21h16l12 3 8 6 5 6 4 9v14l-5 10-7 8-6 3h-3v2h-152l-11-7-6-8-4-10v-10l4-11 7-8 8-5 8-2 52-1 13-23 16-30 10-18 14-26 11-19 7-14 13-23 17-32 10-18 14-26 1-2-15 1-12-1-10-5-8-8-4-10-8-37-6-31-6 27-8 39-5 12-5 6-8 5-6 2-24 1h-276l-20-1-10-4-8-8-4-8-6-25-9-43-1-3-7 37-7 32-5 10-4 5-8 5-7 2-52 1h-192l-17-1-10-4-8-8-5-10v-15l4-10 4-5 9-6 4-2 31-1h199l2-1 9-42 22-106 1-3-3 1h-456l-2 1 27 130 4 18v3l5-1h27l13 2 8 4 7 7 4 8 1 3v15l-5 10-7 7-8 4-4 1-20 1h-41l-13-1-10-5-7-7-4-8-6-25-8-40-1-6-7 32-7 34-5 12-6 7-10 5-3 1-47 1h-260l-17-1-10-4-6-5-6-10-6-25-9-43v-4h-2l-1 11-12 57-5 11-4 5-8 5-6 2-10 1h-13l-2 1 6 11 18 34 13 24 10 18 14 26 10 18 14 26 10 18 14 26 9 16 7 12 49 1 10 2 10 6 7 9 3 10v9l-5 12-5 6-8 5-4 2h-152v-2l-6-2-8-7-6-12-1-9 4-13 6-8 10-6 9-2h17l-14-25-14-26-84-154-13-24v-2h-127l-14-1-10-4-8-8-5-11-9-42-23-111-12-57-1-6v-9l5-12 11-12 8-8 8-7 38-38 9-11 11-13 13-18 9-14 8-13 10-18 12-25 11-28 8-25 6-24 6-32 3-31 2-64 6-12 8-7zm38 61-3 44-4 31-6 31-8 30-10 30-10 24-8 18-10 19-12 21-7 11-8 12-12 16-10 13-12 14-4 4v2h-2l-7 8v1h224l25-25 2-1v-2h2v-2l4-2v-2l4-2v-2h2v-2h2v-2h2l7-8 11-12 11-14 9-12 9-13 11-18 10-18 8-16 10-23 9-25 7-24 6-26 5-33 3-45zm311 0-1 6-2 31-3 28-4 25-8 34-9 29-10 27-9 20-11 23-14 24-10 16-12 17-6 8-11 14-9 10-14 16v1l299 1 10-1 7-8 9-12 14-18 11-15 12-18 9-15 12-22 11-24 11-29 9-31 7-33 4-32 1-17v-55zm355 0-1 7-1 51-2 29-5 33-6 29-9 32-10 28-11 26-14 28-13 22-10 16-13 18-7 10 3 1h408l-1-5-10-13-12-18-11-18-10-18-10-19-12-28-10-28-8-27-7-31-5-32-3-35-1-58zm272-1-2 1v57l4 40 6 31 6 23 11 33 11 26 14 28 12 20 13 19 13 17 12 16 12 15 3 4 20 1 284-1-2-4-10-11-9-11-13-16-13-18-14-22-9-15-15-29-11-25-10-27-8-26-8-34-5-31-3-31-2-29zm-761 330m1180 0m-1499 61-29 1 5 25 23 111 4 16h170l3-3 13-61 15-73 2-10v-6zm282 0 2 14 28 134 2 5h259l2-2 10-46 15-73 5-23 1-9zm938 0-2 1 5 25 19 92 7 32 1 3h255l3-7 13-61 15-73 2-12zm614 0-221 1 11 55 20 95 2 2h170l3-9 9-42 18-87 3-15z"
    />
    <path
            transform="translate(213)"
            d="m0 0h752v2l5 2 8 7 5 8 1 3v16l-6 11-8 7-7 3-5 1-78 1-20-1-1 330h329v-330h-100l-10-4-8-7-5-8-2-12 2-10 5-9 9-7 5-3h752l3 3 6 4 7 9 12 26 16 36 16 35 12 27 108 240 12 27 3 10v56l-1 18-4 26-7 25-8 20-8 16-11 18-9 12-9 11-4 5h-2v2h-2v2h-2v2h-2v2l-8 7-16 13-17 11-25 13-21 8-28 7-23 4-13 23-16 30-10 18-12 22-13 24-10 18-14 26-10 18-14 26-15 27h21l10 4 8 7 6 12v14l-4 9-7 8-8 5-13 2h-133l-10-2-9-6-6-7-4-10v-11l4-11 5-6 9-6 6-2 56-1 2-5 16-30 12-22 13-23 7-14 9-16 26-48 12-22 16-29 14-26-4-2-20-6-24-10-20-11-12-8-13-10-12-11-17-17-13-17-10-15-4 5-11 16-9 11-11 12-9 9-11 9-15 11-13 8-19 10-21 8-21 6-21 4-19 2h-26l-24-3-26-6-20-7-27-13-17-11-12-9-14-12-14-14-9-11-11-15-6-10h-2l-7 12-12 16-11 12-7 8-8 7-16 13-17 11-16 9-19 8-21 7-17 4-20 3-11 1h-25l-19-2-25-5-17-5-24-10-20-11-12-8-13-10-13-12-16-16-10-13-13-19-4 5-8 12-11 14-12 13-10 10-11 9-17 12-17 10-19 9-20 7-24 6-19 3-11 1h-26l-18-2-25-5-20-6-19-8-23-12-17-12-11-9-12-11-10-10-11-14-11-15-4-7-2-1-2 5-8 12-9 12-9 10-7 8-11 10-10 8-17 12-19 11-21 9-24 8-8 1 11 21 12 22 14 26 10 18 14 26 12 22 16 29 14 26 13 23 9 17 4 7 54 1 10 4 8 7 5 8 2 7v9l-4 10-4 6-6 5-10 4-10 1h-131l-10-2-10-6-7-10-3-10 1-10 4-9 7-8 9-5 4-1 20-1-13-25-13-23-17-32-13-23-17-32-10-18-13-24-12-22-14-26-4-6-29-5-19-5-22-8-16-8-16-9-17-12-14-12-18-18-9-11-10-14-8-13-8-16-7-16-6-18-5-23-2-14-1-14v-63l4-12 13-28 16-36 19-42 18-40 16-36 16-35 12-27 13-29 19-42 16-36 11-25 8-16 4-5zm31 60-2 1-9 21-18 40-19 42-27 60-13 29-19 42-17 38-19 42-6 14 4 1h308l1-7-1-323zm225 0v330h328l1-3v-327zm781 0v330h329v-330zm391 0-1 3v327h312l-1-5-12-27-90-200-13-29-16-36-14-31-3-2zm-1563 391v23l2 22 5 22 8 20 10 19 10 14 10 11 3 4h2v2l8 7 13 10 15 9 19 9 18 6 22 4 12 1h14l20-2 22-5 18-7 16-8 14-9 10-8 10-9 9-9 13-17 10-18 8-19 5-19 3-19 1-22v-12zm391 0-1 2 1 29 3 22 6 21 7 17 11 19 10 13 12 13 12 11 16 11 14 8 16 7 20 6 17 3 13 1h15l19-2 21-5 19-7 21-11 14-10 11-9v-2l4-2 11-12 11-15 10-18 7-17 4-13 3-14 2-19v-27zm390 0v24l2 21 6 25 8 19 9 17 10 14 10 11 5 6 8 7 13 10 15 9 19 9 18 6 22 4 12 1h15l19-2 22-5 21-8 20-11 16-12 10-9 10-10 13-17 10-18 8-19 6-23 2-15 1-20v-14zm719-1-328 1-1 1 1 30 3 22 6 21 9 21 10 16 10 13 11 12 12 11 17 12 17 9 15 6 17 5 17 3 13 1h14l20-2 21-5 19-7 19-10 12-8 11-9 13-12 9-11 10-14 10-19 7-19 4-15 2-13 1-13v-27zm62 1v25l2 19 4 19 7 20 12 23 11 15 10 12h2l2 4 11 9 10 8 15 9 19 9 15 5 12 3 24 3h16l19-2 22-5 21-8 15-8 12-8 10-8 10-9 9-9v-2h2l10-14 9-15 7-15 6-18 4-20 2-26v-16z"
    />
    <path
            transform="translate(1566,2047)"
            d="m0 0 2 1z"
    />
    <path
            transform="translate(1219,584)"
            d="m0 0"
    />
    <path transform="translate(966)" d="m0 0"/>
</svg>