<svg
        class="h-8 w-8 fill-current text-red-500"
        viewBox="0 0 2048 2048"
        width="24"
        height="24"
        xmlns="http://www.w3.org/2000/svg"
>
    <path
            transform="translate(151,95)"
            d="m0 0h17l19 2 20 5 20 8 17 9 14 10 10 9 8 7 11 13h1474l11-13 9-9 14-11 14-9 16-8 19-7 18-4 21-2h14l24 3 18 5 19 8 15 8 14 10 11 10 6 5 7 8 10 13 9 15 8 18 7 22 2 6h1v58l-2 2-5 19-7 18-10 19-13 17-11 12-10 9-14 10-16 9-19 8-18 5-16 3-13 1h-13l-19-2-21-5-21-8-15-8-13-9-13-11-7-6-7-8-4-5-2-1-30-1v133l-1 858 16 2 11 4 10 6 10 9 7 8 8 16 2 10v116l-3 11-8 16-11 12-10 7-12 5-18 4-1 132-1 226-7 14-8 7-8 3-6 1h-457l-11-4-9-8-6-12-1-9v-16l1-35 3-44 5-43 7-41 8-35 10-34 9-25 11-26 10-20 15-25 4-6v-2l-12-4-11-6-12-11-7-10-5-10-3-11-1-12v-98l2-13 4-11 5-9 9-11 10-8 12-6 5-2 25-3-9-11-9-13-13-20-14-25-8-15-15-33-13-32-13-36-14-44-14-52-12-51-10-49-11-61-12-81-9-73-8-80-6-75-5-84-3-69-2-85-158-1v679l-1 807-3 17-5 16-9 19-12 17-16 16-13 9-16 9-20 7-14 3-8 1h-25l-18-3-18-6-19-10-12-9-10-9-5-5-4 2-11 11-16 11-16 8-17 6-14 3-8 1h-24l-18-3-18-6-19-10-11-8-12-11-4-4-4 2-11 11-16 11-16 8-17 6-14 3-8 1h-25l-18-3-18-6-21-11-14-11-14-14-12-17-8-16-6-18-3-16-1-12v-1476l-33 1-2 5-22 22-19 13-19 10-17 6-15 4-10 2-10 1h-28l-20-3-23-7-23-11-12-8-10-8-12-11-11-12-14-21-10-21-7-22-2-7v-59l8-25 8-19 9-15 9-12 9-10 5-6 11-9 12-9 16-9 15-7 20-6 17-3zm4 65-15 2-14 4-16 8-11 8-7 6v2h-2l-8 10-8 14-6 15-3 14-1 17 3 19 5 15 8 15 8 10 12 12 16 10 14 6 18 4h23l15-3 13-5 15-8 11-9 9-9 7-10 8-16 4-13 2-10v-23l-3-15-5-14-7-13-7-9-9-10-14-10-16-8-14-4-15-2zm1729 0-16 2-16 5-14 7-12 9-6 5-9 11-8 13-6 14-4 18-1 14 3 21 5 15 8 15 9 11 10 10 15 10 16 7 19 4h21l15-3 16-6 15-9 10-8v-2l3-1 9-11 8-14 5-12 4-19v-20l-3-16-6-16-8-14-12-14-13-10-17-9-17-5-20-2zm-1566 64-1 3 2 12v32l-2 16h1413l-1-13v-38l1-11-2-1zm67 128-1 29v1443l2 16 5 13 7 11 8 8 10 7 8 4 10 3 4 1h19l15-4 11-6 11-9 8-10 6-12 3-13v-1481zm192 0-1 24v1448l2 16 5 13 7 11 8 8 10 7 10 5 12 3h19l15-4 11-6 11-9 8-10 6-12 3-13v-1481zm192 0-1 24v1448l2 16 5 13 7 11 8 8 10 7 13 6 9 2h19l15-4 11-6 10-8 7-8 5-9 4-10 2-10v-1480zm416 0v40l2 62 4 79 6 84 7 77 9 80 8 60 11 70 9 50 12 58 9 38 13 48 11 36 12 34 11 28 11 25 9 19 6 10 6 11 11 18 13 18 13 15 15 15 13 10 10 6h42l-2-5-12-20-11-19-12-22-12-23-16-33-14-34-11-30-10-34-8-36-4-28-2-26v-9l2-11 4-8 4-5 10-6 12-2 11 2 8 4 8 9 4 11 3 37 4 26 6 26 6 21 10 29 12 29 9 20 14 29 15 28 9 15 11 19 16 25 14 21h32l-3-10-11-30-12-36-9-29-11-40-9-37-1-5v-9l4-11 4-6 9-7 11-3h7l13 4 9 8 6 13 14 55 13 44 16 48 19 50 1 1h25v-991zm128 1056-1 3v92h415v-95zm73 160-11 9-3 3v2h-2l-9 11-11 15-11 18-8 16-9 19-12 33-8 28-8 36-6 35-4 35-3 47v12l379 1 3-1v-319h-14l-4 1-11 14-8 11-8 14-8 17-6 19-5 27-4 10-7 8-10 5-4 1h-13l-10-4-9-8-5-11-1-11 2-18 4-19 8-24 9-19 7-11v-2h-45l-7 10-14 22-15 26-9 17-11 23-11 27-8 26-3 13-3 24-1 11-4 10-7 8-10 5-5 1h-11l-11-4-9-8-5-11-1-7 1-22 4-24 8-30 11-30 11-25 17-34 14-24 1-4z"
    />
    <path
            transform="translate(2047,224)"
            d="m0 0"
    />
</svg>