<svg
        class="h-8 w-8 fill-current text-indigo-500"
        viewBox="0 0 2048 2048"
        width="24"
        height="24"
        xmlns="http://www.w3.org/2000/svg"
>
    <path
            transform="translate(499,247)"
            d="m0 0h1179l42 1 29 3 28 6 27 9 23 10 20 11 21 14 14 11 12 11 8 7 15 16 11 14 12 17 11 19 11 22 10 27 6 23 5 30 1 12 1 37v397l-1 830-4 10-6 8-8 5-6 2-8 1h-1860l-13-4-9-8-5-10-2-13v-480l2-9 5-9 8-8 9-4h1144v-516h-522v196l-1 26-6 12-9 8-7 3-5 1-19 1h-64v61l-2 9-6 9-9 10-85 85-10 7-9 3h-11l-11-4-12-11-90-90-6-10-2-9v-61l-21 1h-37l-17-1-8-3-6-4-5-5-4-5-3-10v-516l4-27 6-22 8-20 8-17 12-19 13-16 7-8 14-14 14-11 15-10 22-12 21-8 17-5 22-4 11-1zm-58 66-20 3-19 6-17 8-14 9-10 8-12 11-6 6v2l-2 1 1 1 113 1 9 3 6 4h2l2 4 5 7 2 6v438l-3 8-6 8-8 6-6 2-9 1-140 1v63l9 1h325l1-212 2-13 5-9 7-7 8-4 7-1h594l9 2 9 6 6 7 4 10 1 122v432h623v-740l-3-24-5-21-9-25-8-17-10-17-12-16-12-14-11-11-11-9-13-10-22-13-17-8-19-7-25-6-13-2-14-1zm-130 120-2 18v341h108v-359zm101 552-1 1-1 10v33l4 6 4 4h2l2 4h2l2 4h2l2 4h2l2 4h2l2 4h2l2 4h2l2 4h2l2 4h2v2h2v2l8 7 9 9 4-2 57-57 1-7v-39l-1-1zm-283 334-1 2v414h1791v-416z"
    />
    <path
            transform="translate(1590,405)"
            d="m0 0h35l26 3 24 5 20 6 25 10 16 8 17 10 14 10 14 11 12 11 17 17 9 11 13 18 8 13 10 18 10 23 8 25 6 29 2 17v48l-4 28-6 24-7 21-11 24-10 18-12 18-11 14-12 14-13 13-11 9-17 13-17 11-23 12-16 7-24 8-21 5-25 4-10 1h-38l-30-4-25-6-21-7-18-8-16-8-20-12-21-16-12-11-8-7-12-13-9-11-13-18-12-20-8-16-10-25-6-20-5-25-3-29v-25l3-29 5-24 7-24 10-24 11-21 7-11 11-16 9-11 9-10 3-4h2l2-4 4-4h2v-2l8-7 15-12 10-7 19-12 16-8 17-8 24-8 25-6 21-3zm6 65-20 2-23 5-21 7-21 10-18 11-14 11-10 9-17 17-14 19-11 19-7 15-7 19-5 19-3 22-1 12v15l3 26 5 22 6 18 10 22 11 18 13 17 12 13 14 13 12 9 14 9 23 12 22 8 26 6 15 2h34l27-4 24-7 15-6 16-8 15-9 11-8 11-9 13-12 12-14 10-14 9-15 10-21 7-21 4-16 3-22v-35l-3-21-6-24-10-25-9-17-10-15-7-9-9-10-2-3h-2l-2-4-8-7-13-11-17-11-16-9-19-8-23-7-23-4-15-1z"
    />
    <path
            transform="translate(1423,1010)"
            d="m0 0h312l121 1 10 4 9 8 5 9 1 4v140l-4 10-7 9-8 5-8 2-450 1-16-2-10-6-7-8-4-9-1-6v-131l2-9 6-10 8-7 8-4zm10 65-2 7v55l85 1h299l1-1v-62z"
    />
    <path
            transform="translate(1114,394)"
            d="m0 0h133l10 2 10 6 7 9 3 7 1 5v135l-2 9-6 10-7 6-10 4-11 1h-126l-10-2-8-4-8-8-5-10-1-6v-135l3-10 6-9 8-6 6-3zm36 65-1 1v63h63l1-6v-57l-1-1z"
    />
    <path
            transform="translate(869,394)"
            d="m0 0h134l9 2 10 6 7 8 4 11v139l-2 8-6 9-7 6-10 4-14 1h-122l-11-2-8-4-7-7-6-12-1-29v-68l1-47 6-12 8-8 9-4zm36 65-1 59 1 5h63v-64z"
    />
    <path
            transform="translate(625,394)"
            d="m0 0h133l10 2 8 5 7 7 4 8 1 3 1 55v56l-1 33-6 12-4 5-7 4-8 3-12 1h-123l-12-2-10-6-6-7-4-9-1-4v-139l4-10 6-8 10-7zm35 65v64h63v-64z"
    />
</svg>