<svg
        class="h-8 w-8 fill-current text-yellow-500"
        viewBox="0 0 2048 2048"
        width="24"
        height="24"
        xmlns="http://www.w3.org/2000/svg"
>
    <path
            transform="translate(1021,239)"
            d="m0 0 11 1 26 8 30 9 28 9 62 19 28 9 88 27 29 9 57 18 30 9 29 9 57 18 30 9 29 9 25 8 49 15 28 9 30 9 29 9 44 14 37 11 31 10 33 10 28 9 30 9 29 9 26 9 6 4 6 7 2 5v108l-4 20-6 15-7 13-8 11-11 12-16 12-17 9-16 5-16 3-12 1h-365l-20-2-16-4-15-6-15-9-13-11-7-7-2-3-4 2-5 6h-2l-2 4-13 10-14 8-15 6-16 4-21 2h-281l-1 386h356l10 2 8 5 6 10 1 6v100l-1 10-6 10-7 5-7 2h-359l-1 373h22l25 1 22 3 17 5 16 7 11 6 10 8 7 6 9 12 8 16 16 34 5 13v13l-6 10-5 4-8 3-17 1h-319l-15-2-8-6-4-5-3-10 2-11 8-19 7-15 12-25 6-9h2l2-4 8-8 15-10 17-8 21-6 10-2 30-2h28l-1-372-360-1-8-4-5-4-4-6-2-7v-109l3-8 6-7 7-4 6-1h358v-386h-282l-22-2-15-4-17-7-11-7-10-8-10-9-5-5-13 13-13 10-19 10-19 6-13 2-14 1h-364l-20-2-15-4-15-6-15-9-15-13-9-10-10-15-8-18-4-15-2-20v-92l2-8 6-8 6-5 24-8 30-9 28-9 55-17 33-10 28-9 264-82 55-17 78-24 28-9 78-24 54-17 65-20 33-10 28-9 55-17zm3 59-10 6-13 10-17 12-15 11-18 13-19 14-14 10-19 14-18 13-14 10-15 11-17 12-12 9-15 11-17 12-12 9-36 26-16 12-13 9-11 8v1h641l-5-5-13-10-17-12-19-14-17-12-16-12-17-12-19-14-36-26-19-14-36-26-19-14-54-39-19-14-13-9zm-129 31m258 0m-261 1-46 14-28 9-39 12-75 23-28 9-171 53-171 53-55 17-31 10v1h370l7-4 36-26 19-14 18-13 19-14 14-10 36-26 19-14 18-13 19-14 36-26 14-10 18-13 4-4zm262 0v2l14 10 19 14 36 26 14 10 19 14 18 13 19 14 17 12 16 12 18 13 11 8 14 10 18 13 16 12 17 12 8 6h371l-2-2-37-12-55-17-216-67-271-84-30-9-28-9zm-1046 250v64l2 16 5 14 7 10 9 10 11 7 12 5 8 2 10 1h369l16-3 12-5 14-10 8-9 6-11 3-7 2-9 1-16v-59zm544 0v75l4 14 6 11 9 11 10 8 13 6 11 3 8 1h621l13-2 14-5 11-7 12-12 7-12 4-12 1-7v-72zm793 0v68l2 13 5 13 9 13 8 8 14 8 11 4 12 2h370l14-2 14-5 12-8 6-5v-2h2l7-10 5-11 3-13v-73zm-777 613v52h711l1-1v-50l-1-1zm284 524-20 4-16 7-10 8-8 13-4 10 9 1h247l3-1-1-5-8-15-8-8-15-8-14-4-13-2z"
    />
    <path
            transform="translate(1836,1012)"
            d="m0 0h13l10 5 7 9 1 3v18l-10 65-14 96-7 47-7 46-7 49-14 95-10 67-3 8-4 6-6 5-6 2-22 1-9-1 15 54 17 61 14 50 16 57 6 22v14l-4 8-7 6-8 3h-11l-8-4-5-4-5-10-15-53-26-93-21-75-9-33v-2h-239l-6 19-20 72-7 24-7 26-21 75-8 28-4 13-4 8-8 7-6 2h-11l-8-3-6-5-4-8-1-3v-10l10-37 16-57 19-68 16-57 7-25 1-2-5 1h-19l-11-2-9-6-5-9-1-2v-11l6-21 7-19 8-18 8-15 14-21 13-15 10-9 10-7 15-9 15-6 14-4 18-2h277l1-13 12-81 17-115 16-109 3-13 6-9 7-5zm-341 395-14 2-16 7-13 9-4 3v2h-2l-11 14-8 13-10 19-3 8 13 1h324l2-6 6-38 4-26v-8z"
    />
    <path
            transform="translate(199,1012)"
            d="m0 0h12l8 4 7 8 3 7 5 32 18 122 18 123 7 48 1 2h273l20 2 18 5 17 8 14 9 11 9 5 4 7 8 11 14 11 18 8 15 10 25 8 25 1 5v9l-5 10-8 7-6 2-7 1h-24l5 16 16 58 18 64 21 75 9 32v10l-5 10-8 7-7 2h-10l-8-3-7-7-5-12-19-68-12-43-18-64-15-54-6-21v-3l-19 1h-221l-2 9-20 72-26 93-14 50-9 32-6 11-9 6-4 1h-11l-8-3-7-7-4-10v-7l6-24 18-64 19-68 16-57 10-35-12 1h-14l-9-2-8-6-5-7-3-12-22-149-24-162-18-122-5-34v-8l4-10 8-7zm85 395 7 49 4 26 1 3h337l-1-6-10-21-9-14-8-10-10-10-14-9-15-6-11-2z"
    />
</svg>