<svg xmlns="http://www.w3.org/2000/svg" width="1024" height="1024" viewBox="0 0 1024 1024"><rect width="100%" height="100%" fill="#FFA500"/><path fill="#0000FF" d="M384.71 325.34h12.18v86.76h-14.22v-56.04q0-3.36.36-7.26l-26.22 49.26q-1.86 3.54-5.7 3.54h-2.28q-3.84 0-5.7-3.54l-26.52-49.44q.18 1.98.3 3.9t.12 3.54v56.04h-14.22v-86.76h12.18q1.08 0 1.86.06t1.41.3q.63.24 1.14.78.51.54.99 1.44l25.98 48.18q1.02 1.92 1.89 3.96.87 2.04 1.71 4.2.84-2.22 1.74-4.29t1.92-3.99l25.62-48.06q.48-.9 1.02-1.44.54-.54 1.17-.78.63-.24 1.41-.3.78-.06 1.86-.06Zm61.68 70.86v-10.38q-6.42.3-10.8 1.11-4.38.81-7.02 2.07-2.64 1.26-3.78 2.94-1.14 1.68-1.14 3.66 0 3.9 2.31 5.58 2.31 1.68 6.03 1.68 4.56 0 7.89-1.65t6.51-5.01Zm-31.32-32.34-2.64-4.74q10.62-9.72 25.56-9.72 5.4 0 9.66 1.77t7.2 4.92q2.94 3.15 4.47 7.53 1.53 4.38 1.53 9.6v38.88h-6.72q-2.1 0-3.24-.63-1.14-.63-1.8-2.55l-1.32-4.44q-2.34 2.1-4.56 3.69-2.22 1.59-4.62 2.67-2.4 1.08-5.13 1.65-2.73.57-6.03.57-3.9 0-7.2-1.05-3.3-1.05-5.7-3.15-2.4-2.1-3.72-5.22-1.32-3.12-1.32-7.26 0-2.34.78-4.65.78-2.31 2.55-4.41 1.77-2.1 4.59-3.96 2.82-1.86 6.93-3.24 4.11-1.38 9.57-2.25 5.46-.87 12.48-1.05v-3.6q0-6.18-2.64-9.15-2.64-2.97-7.62-2.97-3.6 0-5.97.84-2.37.84-4.17 1.89-1.8 1.05-3.27 1.89-1.47.84-3.27.84-1.56 0-2.64-.81t-1.74-1.89Zm72.78-9.6.9 6.96q2.88-5.52 6.84-8.67 3.96-3.15 9.36-3.15 4.26 0 6.84 1.86l-.96 11.1q-.3 1.08-.87 1.53-.57.45-1.53.45-.9 0-2.67-.3t-3.45-.3q-2.46 0-4.38.72t-3.45 2.07q-1.53 1.35-2.7 3.27-1.17 1.92-2.19 4.38v37.92h-14.82v-61.56h8.7q2.28 0 3.18.81.9.81 1.2 2.91Zm31.68-31.32h14.82V374h2.76q1.5 0 2.37-.39.87-.39 1.77-1.59l15.3-18.9q.96-1.26 2.13-1.92 1.17-.66 3.03-.66h13.56l-19.14 22.86q-2.04 2.7-4.44 4.14 1.26.9 2.25 2.1.99 1.2 1.89 2.58l20.52 29.88h-13.38q-1.74 0-3-.57t-2.1-2.07l-15.72-23.34q-.84-1.38-1.74-1.8-.9-.42-2.7-.42h-3.36v28.2h-14.82v-89.16Zm64.62 27.6h14.88v61.56h-14.88v-61.56Zm16.92-17.94q0 1.92-.78 3.6-.78 1.68-2.07 2.94-1.29 1.26-3.03 2.01-1.74.75-3.72.75-1.92 0-3.63-.75t-2.97-2.01q-1.26-1.26-2.01-2.94-.75-1.68-.75-3.6 0-1.98.75-3.72.75-1.74 2.01-3 1.26-1.26 2.97-2.01 1.71-.75 3.63-.75 1.98 0 3.72.75 1.74.75 3.03 2.01 1.29 1.26 2.07 3 .78 1.74.78 3.72Zm57.3 17.94v6.12q0 1.56-.54 3.06t-1.44 2.46l-29.22 38.52h30.3v11.4h-47.52v-6.18q0-1.02.48-2.43.48-1.41 1.44-2.67l29.52-38.94h-29.7v-11.34h46.68Zm22.62 23.7h27.96q0-2.88-.81-5.43t-2.43-4.47q-1.62-1.92-4.11-3.03-2.49-1.11-5.79-1.11-6.42 0-10.11 3.66-3.69 3.66-4.71 10.38Zm37.8 8.94h-38.1q.36 4.74 1.68 8.19 1.32 3.45 3.48 5.7t5.13 3.36q2.97 1.11 6.57 1.11t6.21-.84q2.61-.84 4.56-1.86 1.95-1.02 3.42-1.86 1.47-.84 2.85-.84 1.86 0 2.76 1.38l4.26 5.4q-2.46 2.88-5.52 4.83-3.06 1.95-6.39 3.12-3.33 1.17-6.78 1.65t-6.69.48q-6.42 0-11.94-2.13t-9.6-6.3q-4.08-4.17-6.42-10.32T665.93 380q0-6.3 2.04-11.85t5.85-9.66q3.81-4.11 9.3-6.51 5.49-2.4 12.39-2.4 5.82 0 10.74 1.86t8.46 5.43q3.54 3.57 5.55 8.76 2.01 5.19 2.01 11.85 0 3.36-.72 4.53-.72 1.17-2.76 1.17ZM417.35 557.06q-8.04 0-12.33-4.53-4.29-4.53-4.29-12.51v-34.38h-6.3q-1.2 0-2.04-.78-.84-.78-.84-2.34v-5.88l9.9-1.62 3.12-16.8q.3-1.2 1.14-1.86.84-.66 2.16-.66h7.68v19.38h16.44v10.56h-16.44V539q0 2.88 1.41 4.5t3.87 1.62q1.38 0 2.31-.33.93-.33 1.62-.69.69-.36 1.23-.69.54-.33 1.08-.33.66 0 1.08.33.42.33.9.99l4.44 7.2q-3.24 2.7-7.44 4.08t-8.7 1.38Zm68.16-62.52h11.88l-33.54 78.48q-.66 1.56-1.71 2.37-1.05.81-3.21.81h-11.04l11.52-24.72-24.9-56.94h13.02q1.74 0 2.73.84t1.47 1.92l13.08 31.92q.66 1.62 1.11 3.24.45 1.62.87 3.3.54-1.68 1.08-3.33.54-1.65 1.2-3.27l12.36-31.86q.48-1.2 1.59-1.98t2.49-.78Zm34.08 18v27.6q2.52 3.06 5.49 4.32 2.97 1.26 6.45 1.26 3.36 0 6.06-1.26 2.7-1.26 4.59-3.84 1.89-2.58 2.91-6.51 1.02-3.93 1.02-9.27 0-5.4-.87-9.15t-2.49-6.09q-1.62-2.34-3.93-3.42t-5.25-1.08q-4.62 0-7.86 1.95t-6.12 5.49Zm-1.98-15.3 1.2 5.7q3.78-4.26 8.58-6.9 4.8-2.64 11.28-2.64 5.04 0 9.21 2.1 4.17 2.1 7.2 6.09 3.03 3.99 4.68 9.84t1.65 13.41q0 6.9-1.86 12.78-1.86 5.88-5.31 10.2-3.45 4.32-8.34 6.75-4.89 2.43-10.95 2.43-5.16 0-8.82-1.59t-6.54-4.41v25.2h-14.82v-81.66h9.06q2.88 0 3.78 2.7Zm67.02 21h27.96q0-2.88-.81-5.43t-2.43-4.47q-1.62-1.92-4.11-3.03-2.49-1.11-5.79-1.11-6.42 0-10.11 3.66-3.69 3.66-4.71 10.38Zm37.8 8.94h-38.1q.36 4.74 1.68 8.19 1.32 3.45 3.48 5.7t5.13 3.36q2.97 1.11 6.57 1.11t6.21-.84q2.61-.84 4.56-1.86 1.95-1.02 3.42-1.86 1.47-.84 2.85-.84 1.86 0 2.76 1.38l4.26 5.4q-2.46 2.88-5.52 4.83-3.06 1.95-6.39 3.12-3.33 1.17-6.78 1.65t-6.69.48q-6.42 0-11.94-2.13t-9.6-6.3q-4.08-4.17-6.42-10.32T569.57 524q0-6.3 2.04-11.85t5.85-9.66q3.81-4.11 9.3-6.51 5.49-2.4 12.39-2.4 5.82 0 10.74 1.86t8.46 5.43q3.54 3.57 5.55 8.76 2.01 5.19 2.01 11.85 0 3.36-.72 4.53-.72 1.17-2.76 1.17ZM246.38 689h15.6v11.1h-48V689h17.58v-50.58q0-3 .18-6.18l-12.48 10.44q-1.08.84-2.13 1.05-1.05.21-1.98.03-.93-.18-1.65-.63-.72-.45-1.08-.99l-4.68-6.42 26.46-22.5h12.18V689Zm89.7-32.28q0 11.34-2.43 19.71-2.43 8.37-6.72 13.83-4.29 5.46-10.14 8.13-5.85 2.67-12.63 2.67-6.78 0-12.57-2.67t-10.05-8.13q-4.26-5.46-6.66-13.83-2.4-8.37-2.4-19.71 0-11.4 2.4-19.74 2.4-8.34 6.66-13.8 4.26-5.46 10.05-8.13 5.79-2.67 12.57-2.67t12.63 2.67q5.85 2.67 10.14 8.13 4.29 5.46 6.72 13.8 2.43 8.34 2.43 19.74Zm-15.3 0q0-9.42-1.38-15.6t-3.69-9.84q-2.31-3.66-5.31-5.13-3-1.47-6.24-1.47-3.18 0-6.15 1.47t-5.25 5.13q-2.28 3.66-3.63 9.84t-1.35 15.6q0 9.42 1.35 15.6t3.63 9.84q2.28 3.66 5.25 5.13 2.97 1.47 6.15 1.47 3.24 0 6.24-1.47t5.31-5.13q2.31-3.66 3.69-9.84t1.38-15.6Zm54.9 29.58h22.26q2.4 0 3.81 1.35 1.41 1.35 1.41 3.57v8.88h-59.52v-4.92q0-1.5.63-3.15t2.01-2.97l26.34-26.4q3.3-3.36 5.91-6.42 2.61-3.06 4.35-6.06 1.74-3 2.67-6.09.93-3.09.93-6.51 0-3.12-.9-5.49t-2.55-3.99q-1.65-1.62-3.96-2.43t-5.19-.81q-2.64 0-4.89.75-2.25.75-3.99 2.1-1.74 1.35-2.94 3.15-1.2 1.8-1.8 3.96-1.02 2.76-2.64 3.66-1.62.9-4.68.42l-7.8-1.38q.9-6.24 3.48-10.95 2.58-4.71 6.45-7.86 3.87-3.15 8.88-4.74 5.01-1.59 10.77-1.59 6 0 10.98 1.77t8.52 5.01q3.54 3.24 5.52 7.8 1.98 4.56 1.98 10.14 0 4.8-1.41 8.88-1.41 4.08-3.78 7.8-2.37 3.72-5.55 7.2-3.18 3.48-6.66 7.08l-19.56 19.98q2.82-.84 5.61-1.29 2.79-.45 5.31-.45ZM425 667.4h26.4v-28.38q0-4.02.54-8.88L425 667.4Zm39.3 0h10.92v8.58q0 1.2-.78 2.07-.78.87-2.22.87h-7.92v21.18h-12.9v-21.18h-36.6q-1.5 0-2.64-.93-1.14-.93-1.44-2.31l-1.56-7.5 41.1-54.9h14.04v54.12Zm55.2.3 21.06 32.4h-14.28q-1.62 0-2.61-.84-.99-.84-1.65-1.92L509 675.92q-.3 1.02-.69 1.92-.39.9-.87 1.68l-11.52 17.82q-.66 1.02-1.62 1.89-.96.87-2.4.87h-13.26l21.12-31.74-20.28-29.82h14.28q1.62 0 2.4.45.78.45 1.38 1.47l12.9 20.52q.66-2.04 1.86-4.02l10.38-16.2q1.32-2.22 3.42-2.22h13.62L519.5 667.7Zm67.92 21.3h15.6v11.1h-48V689h17.58v-50.58q0-3 .18-6.18l-12.48 10.44q-1.08.84-2.13 1.05-1.05.21-1.98.03-.93-.18-1.65-.63-.72-.45-1.08-.99l-4.68-6.42 26.46-22.5h12.18V689Zm89.7-32.28q0 11.34-2.43 19.71-2.43 8.37-6.72 13.83-4.29 5.46-10.14 8.13-5.85 2.67-12.63 2.67-6.78 0-12.57-2.67t-10.05-8.13q-4.26-5.46-6.66-13.83-2.4-8.37-2.4-19.71 0-11.4 2.4-19.74 2.4-8.34 6.66-13.8 4.26-5.46 10.05-8.13 5.79-2.67 12.57-2.67t12.63 2.67q5.85 2.67 10.14 8.13 4.29 5.46 6.72 13.8 2.43 8.34 2.43 19.74Zm-15.3 0q0-9.42-1.38-15.6t-3.69-9.84q-2.31-3.66-5.31-5.13-3-1.47-6.24-1.47-3.18 0-6.15 1.47t-5.25 5.13q-2.28 3.66-3.63 9.84t-1.35 15.6q0 9.42 1.35 15.6t3.63 9.84q2.28 3.66 5.25 5.13 2.97 1.47 6.15 1.47 3.24 0 6.24-1.47t5.31-5.13q2.31-3.66 3.69-9.84t1.38-15.6Zm54.9 29.58h22.26q2.4 0 3.81 1.35 1.41 1.35 1.41 3.57v8.88h-59.52v-4.92q0-1.5.63-3.15t2.01-2.97l26.34-26.4q3.3-3.36 5.91-6.42 2.61-3.06 4.35-6.06 1.74-3 2.67-6.09.93-3.09.93-6.51 0-3.12-.9-5.49t-2.55-3.99q-1.65-1.62-3.96-2.43t-5.19-.81q-2.64 0-4.89.75-2.25.75-3.99 2.1-1.74 1.35-2.94 3.15-1.2 1.8-1.8 3.96-1.02 2.76-2.64 3.66-1.62.9-4.68.42l-7.8-1.38q.9-6.24 3.48-10.95 2.58-4.71 6.45-7.86 3.87-3.15 8.88-4.74 5.01-1.59 10.77-1.59 6 0 10.98 1.77t8.52 5.01q3.54 3.24 5.52 7.8 1.98 4.56 1.98 10.14 0 4.8-1.41 8.88-1.41 4.08-3.78 7.8-2.37 3.72-5.55 7.2-3.18 3.48-6.66 7.08l-19.56 19.98q2.82-.84 5.61-1.29 2.79-.45 5.31-.45Zm49.32-18.9h26.4v-28.38q0-4.02.54-8.88l-26.94 37.26Zm39.3 0h10.92v8.58q0 1.2-.78 2.07-.78.87-2.22.87h-7.92v21.18h-12.9v-21.18h-36.6q-1.5 0-2.64-.93-1.14-.93-1.44-2.31l-1.56-7.5 41.1-54.9h14.04v54.12Z"/></svg>