<svg xmlns="http://www.w3.org/2000/svg" width="1440" height="960" viewBox="0 0 1440 960"><rect width="100%" height="100%" fill="#FFA500"/><path fill="#0000FF" d="M464.34 231.54h24.36v173.52h-28.44V292.98q0-6.72.72-14.52l-52.44 98.52q-3.72 7.08-11.4 7.08h-4.56q-7.68 0-11.4-7.08l-53.04-98.88q.36 3.96.6 7.8t.24 7.08v112.08h-28.44V231.54h24.36q2.16 0 3.72.12t2.82.6q1.26.48 2.28 1.56 1.02 1.08 1.98 2.88l51.96 96.36q2.04 3.84 3.78 7.92 1.74 4.08 3.42 8.4 1.68-4.44 3.48-8.58t3.84-7.98l51.24-96.12q.96-1.8 2.04-2.88 1.08-1.08 2.34-1.56 1.26-.48 2.82-.6 1.56-.12 3.72-.12ZM587.7 373.26V352.5q-12.84.6-21.6 2.22-8.76 1.62-14.04 4.14-5.28 2.52-7.56 5.88-2.28 3.36-2.28 7.32 0 7.8 4.62 11.16 4.62 3.36 12.06 3.36 9.12 0 15.78-3.3t13.02-10.02Zm-62.64-64.68-5.28-9.48q21.24-19.44 51.12-19.44 10.8 0 19.32 3.54t14.4 9.84q5.88 6.3 8.94 15.06 3.06 8.76 3.06 19.2v77.76h-13.44q-4.2 0-6.48-1.26-2.28-1.26-3.6-5.1l-2.64-8.88q-4.68 4.2-9.12 7.38-4.44 3.18-9.24 5.34-4.8 2.16-10.26 3.3-5.46 1.14-12.06 1.14-7.8 0-14.4-2.1-6.6-2.1-11.4-6.3-4.8-4.2-7.44-10.44-2.64-6.24-2.64-14.52 0-4.68 1.56-9.3 1.56-4.62 5.1-8.82 3.54-4.2 9.18-7.92 5.64-3.72 13.86-6.48 8.22-2.76 19.14-4.5 10.92-1.74 24.96-2.1v-7.2q0-12.36-5.28-18.3-5.28-5.94-15.24-5.94-7.2 0-11.94 1.68-4.74 1.68-8.34 3.78-3.6 2.1-6.54 3.78-2.94 1.68-6.54 1.68-3.12 0-5.28-1.62t-3.48-3.78Zm145.56-19.2 1.8 13.92q5.76-11.04 13.68-17.34 7.92-6.3 18.72-6.3 8.52 0 13.68 3.72l-1.92 22.2q-.6 2.16-1.74 3.06-1.14.9-3.06.9-1.8 0-5.34-.6t-6.9-.6q-4.92 0-8.76 1.44t-6.9 4.14q-3.06 2.7-5.4 6.54-2.34 3.84-4.38 8.76v75.84h-29.64V281.94h17.4q4.56 0 6.36 1.62 1.8 1.62 2.4 5.82Zm63.36-62.64h29.64v102.12h5.52q3 0 4.74-.78 1.74-.78 3.54-3.18l30.6-37.8q1.92-2.52 4.26-3.84 2.34-1.32 6.06-1.32h27.12l-38.28 45.72q-4.08 5.4-8.88 8.28 2.52 1.8 4.5 4.2 1.98 2.4 3.78 5.16l41.04 59.76h-26.76q-3.48 0-6-1.14t-4.2-4.14l-31.44-46.68q-1.68-2.76-3.48-3.6-1.8-.84-5.4-.84h-6.72v56.4h-29.64V226.74Zm129.24 55.2h29.76v123.12h-29.76V281.94Zm33.84-35.88q0 3.84-1.56 7.2-1.56 3.36-4.14 5.88-2.58 2.52-6.06 4.02-3.48 1.5-7.44 1.5-3.84 0-7.26-1.5t-5.94-4.02q-2.52-2.52-4.02-5.88-1.5-3.36-1.5-7.2 0-3.96 1.5-7.44 1.5-3.48 4.02-6 2.52-2.52 5.94-4.02 3.42-1.5 7.26-1.5 3.96 0 7.44 1.5 3.48 1.5 6.06 4.02 2.58 2.52 4.14 6 1.56 3.48 1.56 7.44Zm114.6 35.88v12.24q0 3.12-1.08 6.12t-2.88 4.92l-58.44 77.04h60.6v22.8h-95.04V392.7q0-2.04.96-4.86.96-2.82 2.88-5.34l59.04-77.88h-59.4v-22.68h93.36Zm45.24 47.4h55.92q0-5.76-1.62-10.86t-4.86-8.94q-3.24-3.84-8.22-6.06-4.98-2.22-11.58-2.22-12.84 0-20.22 7.32-7.38 7.32-9.42 20.76Zm75.6 17.88h-76.2q.72 9.48 3.36 16.38 2.64 6.9 6.96 11.4t10.26 6.72q5.94 2.22 13.14 2.22t12.42-1.68q5.22-1.68 9.12-3.72 3.9-2.04 6.84-3.72 2.94-1.68 5.7-1.68 3.72 0 5.52 2.76l8.52 10.8q-4.92 5.76-11.04 9.66-6.12 3.9-12.78 6.24-6.66 2.34-13.56 3.3t-13.38.96q-12.84 0-23.88-4.26t-19.2-12.6q-8.16-8.34-12.84-20.64t-4.68-28.5q0-12.6 4.08-23.7t11.7-19.32q7.62-8.22 18.6-13.02 10.98-4.8 24.78-4.8 11.64 0 21.48 3.72t16.92 10.86q7.08 7.14 11.1 17.52 4.02 10.38 4.02 23.7 0 6.72-1.44 9.06-1.44 2.34-5.52 2.34ZM529.62 694.98q-16.08 0-24.66-9.06-8.58-9.06-8.58-25.02v-68.76h-12.6q-2.4 0-4.08-1.56-1.68-1.56-1.68-4.68v-11.76l19.8-3.24 6.24-33.6q.6-2.4 2.28-3.72 1.68-1.32 4.32-1.32h15.36v38.76h32.88v21.12h-32.88v66.72q0 5.76 2.82 9t7.74 3.24q2.76 0 4.62-.66 1.86-.66 3.24-1.38 1.38-.72 2.46-1.38 1.08-.66 2.16-.66 1.32 0 2.16.66.84.66 1.8 1.98l8.88 14.4q-6.48 5.4-14.88 8.16t-17.4 2.76Zm136.32-125.04h23.76L622.62 726.9q-1.32 3.12-3.42 4.74-2.1 1.62-6.42 1.62H590.7l23.04-49.44-49.8-113.88h26.04q3.48 0 5.46 1.68t2.94 3.84l26.16 63.84q1.32 3.24 2.22 6.48.9 3.24 1.74 6.6 1.08-3.36 2.16-6.66 1.08-3.3 2.4-6.54l24.72-63.72q.96-2.4 3.18-3.96t4.98-1.56Zm68.16 36v55.2q5.04 6.12 10.98 8.64 5.94 2.52 12.9 2.52 6.72 0 12.12-2.52 5.4-2.52 9.18-7.68 3.78-5.16 5.82-13.02 2.04-7.86 2.04-18.54 0-10.8-1.74-18.3t-4.98-12.18q-3.24-4.68-7.86-6.84t-10.5-2.16q-9.24 0-15.72 3.9t-12.24 10.98Zm-3.96-30.6 2.4 11.4q7.56-8.52 17.16-13.8 9.6-5.28 22.56-5.28 10.08 0 18.42 4.2 8.34 4.2 14.4 12.18 6.06 7.98 9.36 19.68t3.3 26.82q0 13.8-3.72 25.56-3.72 11.76-10.62 20.4-6.9 8.64-16.68 13.5-9.78 4.86-21.9 4.86-10.32 0-17.64-3.18t-13.08-8.82v50.4h-29.64V569.94h18.12q5.76 0 7.56 5.4Zm134.04 42h55.92q0-5.76-1.62-10.86t-4.86-8.94q-3.24-3.84-8.22-6.06-4.98-2.22-11.58-2.22-12.84 0-20.22 7.32-7.38 7.32-9.42 20.76Zm75.6 17.88h-76.2q.72 9.48 3.36 16.38 2.64 6.9 6.96 11.4t10.26 6.72q5.94 2.22 13.14 2.22t12.42-1.68q5.22-1.68 9.12-3.72 3.9-2.04 6.84-3.72 2.94-1.68 5.7-1.68 3.72 0 5.52 2.76l8.52 10.8q-4.92 5.76-11.04 9.66-6.12 3.9-12.78 6.24-6.66 2.34-13.56 3.3t-13.38.96q-12.84 0-23.88-4.26t-19.2-12.6q-8.16-8.34-12.84-20.64t-4.68-28.5q0-12.6 4.08-23.7t11.7-19.32q7.62-8.22 18.6-13.02 10.98-4.8 24.78-4.8 11.64 0 21.48 3.72t16.92 10.86q7.08 7.14 11.1 17.52 4.02 10.38 4.02 23.7 0 6.72-1.44 9.06-1.44 2.34-5.52 2.34Z"/></svg>