<svg xmlns="http://www.w3.org/2000/svg" width="1024" height="1024" viewBox="0 0 1024 1024"><rect width="100%" height="100%" fill="#FFA500"/><path fill="#0000FF" d="M231.36 385.975h26.22l-10.03-27.42q-.74-1.82-1.54-4.33t-1.59-5.42q-.74 2.91-1.54 5.45-.8 2.53-1.54 4.41l-9.98 27.31Zm20.92-51.3 32.38 82.42H272.8q-1.99 0-3.25-1-1.25-1-1.88-2.48l-6.15-16.81h-34.15l-6.15 16.81q-.46 1.31-1.77 2.4-1.31 1.08-3.25 1.08h-11.97l32.43-82.42h15.62Zm38.88-2.28h14.08v84.7h-14.08v-84.7Zm28.33 0h14.07v84.7h-14.07v-84.7Zm73.41 43.72h11.46q4.22 0 7.35-1.06 3.14-1.05 5.22-3.02 2.08-1.96 3.1-4.79 1.03-2.82 1.03-6.3 0-3.3-1.03-5.98-1.02-2.68-3.07-4.56-2.06-1.88-5.19-2.88-3.14-1-7.41-1H392.9v29.59Zm-15.33-41.44h26.79q8.26 0 14.31 1.94 6.04 1.93 9.97 5.41 3.93 3.48 5.84 8.32 1.91 4.85 1.91 10.6 0 5.99-1.99 10.98-2 4.98-5.99 8.58-3.99 3.59-10 5.58-6.01 2-14.05 2H392.9v29.01h-15.33v-82.42Zm80.77 27.47.85 6.61q2.74-5.24 6.5-8.23 3.76-3 8.89-3 4.05 0 6.5 1.77l-.91 10.55q-.29 1.02-.83 1.45-.54.43-1.45.43-.86 0-2.54-.29-1.68-.28-3.28-.28-2.33 0-4.16.68-1.82.69-3.27 1.97-1.46 1.28-2.57 3.1-1.11 1.83-2.08 4.17v36.02h-14.08v-58.48h8.27q2.16 0 3.02.77.85.77 1.14 2.76Zm55.97-4.44q6.5 0 11.83 2.1 5.33 2.11 9.12 5.99 3.79 3.88 5.84 9.46 2.05 5.59 2.05 12.48 0 6.96-2.05 12.54-2.05 5.59-5.84 9.52-3.79 3.94-9.12 6.05-5.33 2.1-11.83 2.1-6.55 0-11.91-2.1-5.36-2.11-9.15-6.05-3.79-3.93-5.87-9.52-2.08-5.58-2.08-12.54 0-6.89 2.08-12.48 2.08-5.58 5.87-9.46 3.79-3.88 9.15-5.99 5.36-2.1 11.91-2.1Zm0 49.42q7.3 0 10.8-4.91 3.51-4.9 3.51-14.36 0-9.46-3.51-14.42-3.5-4.96-10.8-4.96-7.41 0-10.97 4.99-3.56 4.98-3.56 14.39 0 9.4 3.56 14.33 3.56 4.94 10.97 4.94Zm76.32-7.36v-26.22q-2.39-2.9-5.21-4.1-2.82-1.2-6.07-1.2-3.19 0-5.76 1.2-2.56 1.2-4.39 3.62-1.82 2.42-2.79 6.15-.97 3.74-.97 8.81 0 5.13.83 8.69.82 3.56 2.36 5.82 1.54 2.25 3.76 3.25 2.23.99 4.96.99 4.39 0 7.47-1.82t5.81-5.19Zm0-67.37h14.08v84.7h-8.6q-2.8 0-3.54-2.56l-1.19-5.65q-3.54 4.05-8.13 6.56-4.59 2.5-10.68 2.5-4.79 0-8.78-1.99-3.99-2-6.87-5.79t-4.45-9.37q-1.56-5.59-1.56-12.77 0-6.5 1.76-12.08 1.77-5.59 5.08-9.69 3.3-4.11 7.92-6.42 4.62-2.31 10.37-2.31 4.9 0 8.38 1.54 3.48 1.54 6.21 4.16v-30.83Zm64.3 26.22h14.08v58.48h-8.61q-2.79 0-3.53-2.56l-.97-4.68q-3.59 3.65-7.92 5.9-4.34 2.25-10.21 2.25-4.78 0-8.46-1.62-3.68-1.63-6.19-4.59-2.5-2.97-3.79-7.04-1.28-4.08-1.28-8.98v-37.16h14.08v37.16q0 5.36 2.48 8.3 2.48 2.93 7.44 2.93 3.65 0 6.84-1.62 3.19-1.63 6.04-4.48v-42.29Zm73.59 7.24-3.71 5.13q-.62.79-1.22 1.25-.6.46-1.74.46-1.08 0-2.11-.66-1.03-.65-2.45-1.48-1.43-.83-3.39-1.48-1.97-.66-4.88-.66-3.7 0-6.49 1.34-2.8 1.34-4.65 3.85-1.85 2.51-2.76 6.07-.92 3.56-.92 8.06 0 4.68 1 8.33 1 3.64 2.88 6.12t4.56 3.77q2.68 1.28 6.04 1.28t5.44-.83q2.09-.82 3.51-1.82 1.43-1 2.48-1.83 1.05-.82 2.37-.82 1.71 0 2.56 1.31l4.05 5.13q-2.34 2.73-5.08 4.59-2.73 1.85-5.67 2.96-2.93 1.11-6.04 1.57-3.11.45-6.18.45-5.42 0-10.21-2.02-4.78-2.02-8.38-5.9-3.59-3.87-5.67-9.49-2.08-5.61-2.08-12.8 0-6.44 1.85-11.94 1.86-5.5 5.45-9.52 3.59-4.01 8.89-6.29 5.3-2.28 12.2-2.28 6.55 0 11.48 2.1 4.93 2.11 8.87 6.05Zm28.84 52.15q-7.64 0-11.71-4.3-4.08-4.31-4.08-11.89v-32.66h-5.98q-1.14 0-1.94-.74t-.8-2.22v-5.59l9.4-1.54 2.97-15.96q.28-1.14 1.08-1.76.8-.63 2.05-.63h7.3v18.41h15.62v10.03h-15.62v31.69q0 2.74 1.34 4.28t3.68 1.54q1.31 0 2.19-.31.88-.32 1.54-.66.65-.34 1.17-.66.51-.31 1.02-.31.63 0 1.03.31.4.32.85.94l4.22 6.84q-3.08 2.57-7.07 3.88t-8.26 1.31Zm61.79-53.07-3.19 5.08q-.57.91-1.2 1.28t-1.6.37q-1.02 0-2.19-.57t-2.71-1.28q-1.54-.71-3.51-1.28-1.96-.57-4.64-.57-4.16 0-6.53 1.76-2.36 1.77-2.36 4.62 0 1.88 1.22 3.16 1.23 1.29 3.25 2.25 2.03.97 4.59 1.74 2.57.77 5.22 1.69 2.65.91 5.21 2.08 2.57 1.16 4.59 2.96t3.25 4.3q1.22 2.51 1.22 6.04 0 4.22-1.51 7.79-1.51 3.56-4.47 6.15-2.96 2.59-7.33 4.05-4.36 1.45-10.06 1.45-3.02 0-5.9-.54-2.87-.54-5.52-1.51-2.65-.97-4.91-2.28-2.25-1.31-3.96-2.85l3.25-5.36q.63-.97 1.48-1.48.86-.51 2.17-.51t2.48.74q1.17.74 2.71 1.59 1.54.86 3.62 1.6 2.08.74 5.27.74 2.51 0 4.3-.6 1.8-.6 2.97-1.57 1.16-.96 1.71-2.25.54-1.28.54-2.65 0-2.05-1.23-3.36-1.22-1.31-3.25-2.28-2.02-.97-4.61-1.74-2.6-.77-5.31-1.68-2.7-.91-5.3-2.14-2.59-1.22-4.61-3.1-2.03-1.88-3.25-4.62-1.23-2.74-1.23-6.61 0-3.59 1.43-6.84 1.42-3.25 4.19-5.67 2.76-2.43 6.89-3.88 4.14-1.45 9.55-1.45 6.04 0 11 1.99 4.96 2 8.27 5.24ZM426.5 554.805q-7.64 0-11.71-4.3-4.08-4.3-4.08-11.89v-32.66h-5.98q-1.14 0-1.94-.74t-.8-2.22v-5.59l9.41-1.54 2.96-15.96q.29-1.14 1.08-1.76.8-.63 2.06-.63h7.29v18.41h15.62v10.03h-15.62v31.7q0 2.73 1.34 4.27 1.34 1.54 3.68 1.54 1.31 0 2.19-.31.89-.32 1.54-.66.66-.34 1.17-.66.51-.31 1.03-.31.62 0 1.02.31.4.32.86.95l4.22 6.84q-3.08 2.56-7.07 3.87t-8.27 1.31Zm64.75-59.39h11.29l-31.86 74.55q-.63 1.49-1.63 2.26-.99.77-3.05.77h-10.48l10.94-23.49-23.66-54.09h12.37q1.66 0 2.6.8.94.79 1.39 1.82l12.43 30.32q.63 1.54 1.05 3.08.43 1.54.83 3.14.51-1.6 1.03-3.17.51-1.56 1.14-3.1l11.74-30.27q.45-1.14 1.51-1.88 1.05-.74 2.36-.74Zm32.38 17.1v26.22q2.39 2.91 5.22 4.1 2.82 1.2 6.12 1.2 3.2 0 5.76-1.2 2.57-1.19 4.36-3.65 1.8-2.45 2.77-6.18.96-3.73.96-8.81 0-5.13-.82-8.69-.83-3.56-2.37-5.78-1.54-2.23-3.73-3.25-2.2-1.03-4.99-1.03-4.39 0-7.47 1.85-3.07 1.86-5.81 5.22Zm-1.88-14.54 1.14 5.42q3.59-4.05 8.15-6.56 4.56-2.5 10.72-2.5 4.78 0 8.75 1.99 3.96 2 6.84 5.79 2.87 3.79 4.44 9.34 1.57 5.56 1.57 12.74 0 6.56-1.77 12.14-1.76 5.59-5.04 9.69-3.28 4.11-7.93 6.42-4.64 2.31-10.4 2.31-4.9 0-8.38-1.52-3.47-1.51-6.21-4.18v23.94h-14.08v-77.58h8.61q2.73 0 3.59 2.56Zm63.67 19.95h26.56q0-2.73-.77-5.16-.77-2.42-2.31-4.24-1.54-1.83-3.9-2.88-2.37-1.05-5.5-1.05-6.1 0-9.61 3.47-3.5 3.48-4.47 9.86Zm35.91 8.5h-36.2q.35 4.5 1.6 7.78 1.25 3.27 3.31 5.41 2.05 2.14 4.87 3.19 2.82 1.06 6.24 1.06 3.42 0 5.9-.8 2.48-.8 4.33-1.77t3.25-1.76q1.4-.8 2.71-.8 1.77 0 2.62 1.31l4.05 5.13q-2.34 2.73-5.25 4.59-2.9 1.85-6.07 2.96-3.16 1.11-6.44 1.57-3.28.46-6.35.46-6.1 0-11.35-2.03-5.24-2.02-9.12-5.98-3.87-3.96-6.1-9.81-2.22-5.84-2.22-13.53 0-5.99 1.94-11.26t5.56-9.18q3.62-3.9 8.83-6.18 5.22-2.28 11.77-2.28 5.53 0 10.21 1.76 4.67 1.77 8.03 5.16 3.37 3.39 5.27 8.32 1.91 4.93 1.91 11.26 0 3.19-.68 4.3-.68 1.12-2.62 1.12Zm-357.25 153.73h14.82v10.54h-45.6v-10.54H250v-48.06q0-2.85.17-5.87l-11.85 9.92q-1.03.8-2.03 1-.99.2-1.88.03-.88-.17-1.56-.6-.69-.43-1.03-.94l-4.45-6.1 25.14-21.38h11.57v72Zm85.22-30.67q0 10.77-2.31 18.72-2.31 7.95-6.39 13.14-4.07 5.19-9.63 7.73-5.56 2.53-12 2.53t-11.94-2.53q-5.5-2.54-9.55-7.73-4.04-5.19-6.32-13.14-2.28-7.95-2.28-18.72 0-10.83 2.28-18.75 2.28-7.93 6.32-13.11 4.05-5.19 9.55-7.73 5.5-2.53 11.94-2.53 6.44 0 12 2.53 5.56 2.54 9.63 7.73 4.08 5.18 6.39 13.11 2.31 7.92 2.31 18.75Zm-14.54 0q0-8.95-1.31-14.82-1.31-5.87-3.51-9.35-2.19-3.48-5.04-4.87-2.85-1.4-5.93-1.4-3.02 0-5.84 1.4-2.82 1.39-4.99 4.87-2.16 3.48-3.45 9.35-1.28 5.87-1.28 14.82t1.28 14.82q1.29 5.87 3.45 9.35 2.17 3.47 4.99 4.87 2.82 1.4 5.84 1.4 3.08 0 5.93-1.4 2.85-1.4 5.04-4.87 2.2-3.48 3.51-9.35 1.31-5.87 1.31-14.82Zm52.16 28.1h21.14q2.28 0 3.62 1.28 1.34 1.29 1.34 3.39v8.44h-56.54v-4.67q0-1.43.6-3 .6-1.56 1.91-2.82l25.02-25.08q3.13-3.19 5.61-6.1 2.48-2.9 4.14-5.75 1.65-2.85 2.53-5.79.89-2.93.89-6.18 0-2.97-.86-5.22-.85-2.25-2.42-3.79-1.57-1.54-3.76-2.31-2.2-.77-4.93-.77-2.51 0-4.65.71-2.14.72-3.79 2t-2.79 2.99q-1.14 1.71-1.71 3.76-.97 2.63-2.51 3.48-1.54.86-4.45.4l-7.41-1.31q.86-5.93 3.31-10.4 2.45-4.48 6.13-7.47 3.67-2.99 8.43-4.5 4.76-1.51 10.23-1.51 5.7 0 10.44 1.68 4.73 1.68 8.09 4.76 3.36 3.08 5.24 7.41 1.88 4.33 1.88 9.63 0 4.56-1.34 8.44-1.33 3.87-3.59 7.41-2.25 3.53-5.27 6.84-3.02 3.3-6.33 6.72l-18.58 18.98q2.68-.79 5.33-1.22 2.65-.43 5.05-.43Zm46.85-17.95h25.08v-26.97q0-3.81.51-8.43l-25.59 35.4Zm37.34 0h10.37v8.15q0 1.14-.74 1.96-.74.83-2.11.83h-7.52v20.12h-12.26v-20.12h-34.77q-1.42 0-2.51-.88-1.08-.89-1.37-2.2l-1.48-7.12 39.05-52.16h13.34v51.42Zm52.44.28 20 30.78h-13.56q-1.54 0-2.48-.8t-1.57-1.82l-12.37-20.35q-.28.97-.66 1.82-.37.86-.82 1.6l-10.95 16.93q-.62.97-1.53 1.79-.92.83-2.28.83h-12.6l20.06-30.15-19.26-28.33h13.56q1.54 0 2.28.43.74.42 1.31 1.39l12.26 19.5q.63-1.94 1.77-3.82l9.86-15.39q1.25-2.11 3.25-2.11h12.93l-19.2 27.7Zm64.52 20.24h14.82v10.54h-45.6v-10.54h16.7v-48.06q0-2.85.17-5.87l-11.85 9.92q-1.03.8-2.03 1-1 .2-1.88.03-.88-.17-1.57-.6-.68-.43-1.02-.94l-4.45-6.1 25.14-21.38h11.57v72Zm85.21-30.67q0 10.77-2.3 18.72-2.31 7.95-6.39 13.14-4.07 5.19-9.63 7.73-5.56 2.53-12 2.53t-11.94-2.53q-5.5-2.54-9.55-7.73-4.05-5.19-6.33-13.14-2.28-7.95-2.28-18.72 0-10.83 2.28-18.75 2.28-7.93 6.33-13.11 4.05-5.19 9.55-7.73 5.5-2.53 11.94-2.53 6.44 0 12 2.53 5.56 2.54 9.63 7.73 4.08 5.18 6.39 13.11 2.3 7.92 2.3 18.75Zm-14.53 0q0-8.95-1.31-14.82-1.31-5.87-3.51-9.35-2.19-3.48-5.04-4.87-2.85-1.4-5.93-1.4-3.02 0-5.84 1.4-2.82 1.39-4.99 4.87-2.17 3.48-3.45 9.35-1.28 5.87-1.28 14.82t1.28 14.82q1.28 5.87 3.45 9.35 2.17 3.47 4.99 4.87 2.82 1.4 5.84 1.4 3.08 0 5.93-1.4 2.85-1.4 5.04-4.87 2.2-3.48 3.51-9.35 1.31-5.87 1.31-14.82Zm52.15 28.1h21.15q2.28 0 3.62 1.28 1.34 1.29 1.34 3.39v8.44h-56.54v-4.67q0-1.43.59-3 .6-1.56 1.91-2.82l25.03-25.08q3.13-3.19 5.61-6.1 2.48-2.9 4.13-5.75 1.66-2.85 2.54-5.79.88-2.93.88-6.18 0-2.97-.85-5.22-.86-2.25-2.42-3.79-1.57-1.54-3.77-2.31-2.19-.77-4.93-.77-2.5 0-4.64.71-2.14.72-3.79 2t-2.79 2.99q-1.14 1.71-1.71 3.76-.97 2.63-2.51 3.48-1.54.86-4.45.4l-7.41-1.31q.86-5.93 3.31-10.4 2.45-4.48 6.12-7.47 3.68-2.99 8.44-4.5 4.76-1.51 10.23-1.51 5.7 0 10.43 1.68 4.73 1.68 8.1 4.76 3.36 3.08 5.24 7.41 1.88 4.33 1.88 9.63 0 4.56-1.34 8.44-1.34 3.87-3.59 7.41-2.25 3.53-5.27 6.84-3.02 3.3-6.33 6.72l-18.58 18.98q2.68-.79 5.33-1.22 2.65-.43 5.04-.43Zm46.86-17.95h25.08v-26.97q0-3.81.51-8.43l-25.59 35.4Zm37.33 0h10.38v8.15q0 1.14-.74 1.96-.74.83-2.11.83h-7.53v20.12h-12.25v-20.12h-34.77q-1.43 0-2.51-.88-1.08-.89-1.37-2.2l-1.48-7.12 39.05-52.16h13.33v51.42Z"/></svg>